<svg xmlns="http://www.w3.org/2000/svg" width="262" height="311" viewBox="0 0 262 311" fill="none">
  <path opacity="0.12" d="M95.2956 148.006C95.2956 148.006 95.3018 147.963 95.3093 147.946C95.3429 147.944 95.3848 147.942 95.4184 147.94L95.2961 148.014L95.2956 148.006ZM50.5403 145.34C50.846 145.231 51.1516 145.122 51.4568 145.005C51.1238 145.073 50.8186 145.19 50.5403 145.34ZM3.55253 105.695L3.53575 105.696C3.73936 105.727 4.07503 105.71 4.50169 105.662C4.27602 105.531 3.98054 105.513 3.55253 105.695ZM-47.2922 144.832C-46.6364 140.005 -46.5362 135.333 -47.1334 130.521C-47.3539 128.722 -47.4961 126.168 -44.5889 125.443C-43.5006 125.176 -42.8799 124.175 -42.7088 122.944C-44.7191 122.317 -44.5872 125.477 -46.882 124.721C-43.9268 117.045 -40.7552 109.483 -36.3505 102.488C-33.9657 98.6993 -32.0565 94.5056 -27.8506 92.23L-27.9658 92.1181C-27.9141 92.1407 -27.8633 92.1464 -27.8121 92.1606C-27.8121 92.1606 -27.8196 92.1778 -27.8276 92.1867C-26.7738 92.7042 -25.7192 93.2386 -24.3802 93.9012C-25.4414 95.6498 -30.3745 96.2537 -26.2631 99.399C-26.2017 99.4464 -26.727 100.341 -27.0486 100.788C-28.8829 103.36 -28.5236 104.917 -24.6008 105.107C-28.8242 106.406 -26.6096 111.252 -29.6637 113.189C-22.0246 113.639 -17.1819 107.136 -9.78987 105.603C-12.7797 104.108 -15.658 106.028 -18.1124 103.832C-15.2044 103.604 -11.6809 102.114 -7.54113 99.3781C-8.54042 98.1333 -10.5343 98.9453 -11.4509 97.5109C-10.4533 95.3529 -8.4373 96.8897 -6.79063 96.197C-8.07612 94.9503 -10.835 96.2573 -10.8855 94.171C-10.9241 92.6316 -8.87854 91.8422 -7.70572 90.7784C-8.34774 89.7675 -9.51593 89.635 -10.9372 89.1704C-8.1375 87.1959 -5.74245 85.3689 -3.20875 83.779C-2.03555 83.0436 -1.68519 82.343 -2.1474 81.0701C-2.78619 79.3179 -3.6437 80.6178 -4.43123 80.8444C-5.99836 81.2887 -7.57949 80.9841 -8.93266 80.3728C-12.165 78.9081 -14.8385 79.5957 -17.2673 82.0646C-18.0435 80.5807 -18.1139 79.3968 -16.6691 78.3861C-8.07136 72.4016 -0.573172 65.0259 7.86822 58.7884C12.6397 55.2618 17.8648 52.0399 22.1484 47.7134C23.4591 46.3897 25.3734 45.506 27.1747 44.8725C32.7193 42.931 35.766 37.3216 41.1176 35.3902C43.4383 34.5527 45.6955 33.1456 48.8476 33.8817C52.1357 34.6443 55.9518 33.9221 59.3784 33.1529C65.5828 31.758 71.4441 35.216 77.5671 34.0359C78.0755 33.9419 78.7385 34.0672 79.1902 34.3383C85.9418 38.4066 93.9404 38.6528 101.002 41.4077C107.771 44.0515 114.987 46.5456 120.213 52.4796C123.317 55.9977 127.275 59.1174 132.865 56.2639C129.737 60.1592 127.614 64.7684 122.954 67.211C122.053 67.6794 120.817 68.9824 120.938 69.7004C121.884 75.2269 115.342 74.9969 114.486 79.3713C115.107 80.4674 117.014 79.2725 118.285 80.4019C115.738 78.6992 114.836 83.6318 112.231 81.6205C113.611 84.5131 110.163 87.4397 112.167 90.1985C112.938 91.2531 113.262 92.1458 111.96 92.1888C108.828 92.3108 109.121 95.3278 107.588 96.7474C108.042 97.2289 108.496 97.7021 109.235 98.4804C106.544 98.5035 101.995 95.2042 103.187 101.577C103.82 102.083 104.189 101.415 104.661 101.281C109.123 100.028 110.085 100.719 110.628 105.626C110.881 107.879 109.133 106.639 108.66 106.453C107.329 105.942 106.141 105.752 105.334 107.049C104.589 108.242 105.494 109.146 106.294 109.947C106.791 110.451 107.363 111.575 106.732 111.566C101.806 111.504 104.533 114.242 104.659 116.324C104.719 117.467 102.583 116.063 102.053 117.337C101.754 118.052 99.7321 118.015 100.961 119.155C101.448 119.601 101.996 121.72 103.402 120.29C104.992 118.674 107.237 119.929 108.974 118.869C107.913 120.13 105.734 121.751 105.996 122.58C106.68 124.701 105.511 127.44 108.256 128.77C103.474 131.775 99.0464 129.497 94.9121 128.484C91.6814 127.693 88.5826 127.814 85.43 127.709C81.6449 127.579 81.1425 128.591 82.6772 132.183C82.9363 132.793 83.2202 133.393 83.497 134.018C81.8803 135.442 80.31 133.579 78.6325 134.004C78.0572 135.23 79.8102 135.121 80 135.853C78.4544 137.349 77.6924 135.173 75.9077 134.997C77.5883 137.2 78.2327 139.542 81.127 136.804C83.6043 134.459 87.1797 136.209 90.2552 135.644C92.9225 135.159 96.1343 133.019 99.0586 135.671C99.4472 136.021 100.853 135.712 101.059 134.673C101.533 132.307 102.764 134.272 103.236 134.45C104.377 134.878 105.498 135.704 105.151 137.28C104.886 138.49 103.904 138.845 102.899 138.62C98.9297 137.708 96.3537 138.651 95.2633 143.055C95.0335 143.968 92.443 144.474 90.8711 144.826C89.3989 145.156 87.8359 145.036 85.5869 145.154C89.9454 146.753 93.6903 144.51 97.3401 145.431C97.4449 147.11 95.5171 146.773 95.3093 147.946C93.695 148.132 92.089 148.477 90.48 148.443C87.152 148.365 85.3229 149.43 86.2299 153.088C88.2219 152.723 90.2139 152.357 92.2063 152C91.9028 152.791 91.3877 153.399 90.73 153.855C91.3961 153.399 91.9112 152.79 92.2227 151.991C93.9842 151.241 95.3416 150.168 95.4179 148.092C96.669 149.163 98.1275 148.733 99.6416 148.401C98.6983 150.312 99.3248 151.829 101.53 152.969C103.373 153.925 103.408 153.957 104.623 152.579C105.259 151.855 106.54 151.426 106.537 152.167C106.521 153.794 109.611 153.329 108.362 155.517C107.33 157.331 104.011 159.038 101.518 158.512C100.548 158.31 100.309 158.895 100.038 159.499C99.4637 160.742 98.3943 161.371 97.4042 160.462C96.1748 159.322 98.4941 158.94 98.3026 157.695C95.5474 158.109 92.7838 158.523 90.0118 158.938C92.0225 160.054 93.5881 161.185 90.3949 162.877C88.4876 163.895 85.3316 163.243 85.2139 166.938C87.1131 166.889 89.2736 167.812 90.2002 164.942C90.4106 164.299 91.1173 164.296 91.6216 164.606C91.891 164.769 92.042 165.241 92.1024 165.592C92.3014 166.82 92.4904 167.054 93.8158 167.296C90.4666 169.704 87.9482 172.708 86.8685 176.673C86.727 177.186 86.8979 177.876 86.2654 177.85C82.4776 177.67 81.7475 180.757 80.0709 183.128C78.3789 185.524 75.3388 186.442 72.6925 187.49C70.5331 188.353 68.8621 189.064 69.5767 191.78C70.1642 193.999 68.5166 194.675 67.0378 195.359C65.953 195.853 64.5083 195.424 63.6685 196.58C63.4836 198.67 69.4293 196.193 66.0935 200.622C68.2529 200.239 69.9473 199.013 72.3274 199.79C68.1683 201.516 68.4814 206.848 64.442 208.609L64.5724 208.367C62.9337 211.3 60.9653 213.079 57.731 210.292C56.9639 209.625 56.1499 209.987 55.3482 210.105C49.3042 211.028 48.1906 209.528 50.4942 203.065C49.3471 203.016 48.2951 202.852 47.266 202.965C46.2033 203.079 45.2951 204.054 44.0581 203.571C43.6108 202.744 44.4725 202.808 44.8122 202.546C46.1727 201.531 48.6961 200.868 47.9778 198.884C47.3686 197.215 45.07 197.992 43.4234 198.525C43.4394 197.387 44.9518 196.861 43.8514 195.614C42.365 196.475 40.846 197.355 39.0495 198.4C40.1218 198.951 40.9344 199.363 41.9029 199.86C40.0137 200.742 37.2719 200.608 39.2274 204.203C40.0663 205.759 36.6099 205.317 35.5077 206.445C38.5146 209.067 37.4572 214.26 33.6308 215.59C32.9117 215.838 32.1066 215.728 32.0997 214.794C32.0824 212.377 30.0663 211.641 28.6307 210.419C27.195 209.197 23.9965 208.699 26.9496 205.798C27.1978 205.558 27.4111 203.525 26.665 203.741C24.6668 204.309 24.0058 201.008 21.8617 202.485C19.8311 203.88 17.3271 204.593 15.8962 206.832C15.3439 207.695 14.5201 208.193 13.4977 208.112C13.3117 208.097 13.0839 207.443 13.0478 207.074C12.9406 205.993 13.4323 205.26 14.4249 204.77C15.8935 204.053 17.315 203.237 19.6892 201.976C15.9836 201.597 13.9431 204.248 10.9505 203.343C12.4224 201.885 13.7737 200.534 15.1338 199.191C15.2239 199.144 15.3962 199.059 15.6586 198.927C15.8163 193.747 21.5126 195.664 23.7492 192.902C21.6196 192.247 20.1617 189.636 17.7692 191.674C19.1644 189.714 20.4804 187.691 22.0964 185.93C21.1688 186.214 20.2331 185.379 19.5663 184.538C18.072 182.679 20.6315 182.385 21.2035 182.22C22.6872 181.789 23.9513 178.934 25.8854 181.478C25.057 182.532 24.2287 183.586 23.4154 184.606C23.4154 184.606 23.4079 184.623 23.4 184.632C24.2128 183.604 25.0416 182.558 25.8703 181.512C29.0099 182.973 32.7104 181.811 35.8142 183.712C36.8317 184.341 38.0631 183.754 38.2657 182.32C38.5677 180.215 40.1585 180.865 42.687 180.783C39.7841 179.823 40.4576 177.901 39.8473 176.855C37.656 173.095 41.647 175.387 42.0296 174.34C43.068 171.514 46.4866 171.554 48.0412 169.266C49.3144 167.388 51.5561 166.167 53.4845 165.872C57.5166 165.257 60.7316 164.625 59.6668 159.399C59.5317 158.749 59.7377 158.023 59.7859 157.338C62.2007 161.667 65.4815 158.758 69.6464 158.59C67.9112 157.914 66.5544 158.196 66.7736 157.241C67.0123 156.176 68.2181 156.062 69.2259 156.186C71.5897 156.492 74.055 156.969 72.9586 153.228C72.9175 153.247 72.8844 153.257 72.8433 153.276C72.7656 152.918 72.6875 152.551 72.6098 152.193C68.3722 153.704 63.5227 153.495 59.8965 156.717C61.0398 154.771 60.4544 153.715 58.2371 153.957C56.6643 154.132 55.2249 153.963 53.7274 153.166C58.7208 153.553 61.8184 147.949 67.2272 149.679C64.7931 147.229 61.296 149.703 59.0634 146.923C60.515 145.078 62.7516 145.365 64.5952 144.738C62.1403 140.604 57.8938 139.538 53.2527 141.862C51.1043 143.095 48.4414 143.184 46.5159 144.978C46.1391 145.334 45.0222 144.896 45.4464 146.087C45.7912 147.046 46.4771 146.807 47.1463 146.57C48.2784 146.174 49.4012 145.761 50.5324 145.348C48.7964 146.265 47.9706 148.49 45.8293 148.897C44.2799 149.197 45.7059 149.594 45.8967 150.022C47.2477 153 45.8376 154.674 43.1308 155.692L43.2611 155.61C43.2611 155.61 43.2611 155.61 43.2527 155.61L43.1308 155.692C45.8324 156.182 48.5257 156.673 52.1954 157.331C47.055 158.637 42.8908 159.462 37.8768 158.04C40.0795 157.04 41.6577 156.325 43.2527 155.61C40.2166 156.123 38.1207 154.826 35.9392 152.7C34.4938 151.293 31.7683 151.47 30.0332 149.994C33.2174 151.183 36.4819 150.532 39.7751 150.267C36.6796 149.166 33.9284 146.606 30.2305 148.299C30.3668 143.996 34.2147 143.719 37.206 142.029C34.2503 141.83 31.4558 142.137 29.0246 141.346C26.5677 140.548 27.7242 144.792 25.5099 143.324C25.0652 143.027 22.1949 144.938 24.178 141.836C24.5902 141.191 21.2767 142.03 19.6073 141.486C18.7341 141.203 18.4405 143.627 18.1774 144.871C17.8941 146.208 18.9713 146.691 20.023 146.206C22.743 144.96 23.9569 148.855 26.8452 147.289C18.5056 155.147 7.77382 150.436 -1.41218 153.866C-0.223848 155.025 0.931338 153.785 1.81933 154.993C-0.52661 156.313 -3.62253 155.203 -5.86446 157.864C-2.60098 152.858 -6.4085 152.14 -10.4606 150.608C-4.93206 149.965 -6.22036 144.49 -2.49156 143.225C-3.50405 141.728 -4.65582 143.675 -5.60522 142.58C-4.35941 140.821 -1.95382 141.925 0.406783 140.083C-2.58739 140.594 -4.18274 140.82 -4.76301 137.776C-5.15883 135.683 -7.77182 133.512 -10.3393 136.224C-11.8863 137.855 -13.6869 137.216 -15.3343 137.412C-20.0921 137.99 -24.8905 138.275 -29.6663 138.669C-29.6345 138.633 -29.6031 138.59 -29.5797 138.555C-35.5083 139.11 -40.3358 141.73 -43.056 146.505C-41.5194 146.281 -41.0994 148.837 -39.5851 150.113C-39.8874 151.089 -40.7269 150.645 -41.3285 150.727C-47.3446 151.539 -48.1435 151.067 -47.3002 144.841L-47.2922 144.832ZM49.3227 188.26C42.0783 189.398 37.9382 190.844 36.9027 192.6C41.3015 191.114 45.0654 188.913 49.3227 188.26ZM89.9694 158.932L89.9862 158.931C87.4 157.432 86.8689 155.969 89.4614 154.536C86.8522 155.97 87.3837 157.441 89.9694 158.932ZM73.9604 160.141C73.9097 159.495 73.0569 159.279 72.6964 159.626C70.7841 161.512 68.3615 159.281 66.1286 160.67C68.2414 164.054 70.8282 161.872 73.212 161.435C73.5455 161.376 73.9913 160.569 73.9604 160.141ZM73.0818 153.171C75.6153 155.27 78.0653 152.404 80.5756 153.258C78.0107 151.523 75.5372 152.175 73.0818 153.171ZM100.999 116.988C99.0781 112.119 95.6729 116.509 93.7847 114.359C94.9067 118.748 98.0668 116.106 100.999 116.988ZM91.5783 51.546C91.1305 54.0795 91.4286 56.8772 89.446 58.8678C90.7466 59.4398 90.935 60.7861 91.4971 61.8769C91.9929 62.828 92.1936 64.4094 93.5849 63.9827C95.1008 63.5242 97.1211 62.7361 97.6385 61.5298C98.2841 60.0387 97.8163 58.0165 98.7745 56.3911C100.103 54.1315 97.5043 53.5096 96.6944 52.6676C95.4845 51.4171 96.3438 54.9687 95.0564 54.4886C93.4007 53.7247 93.7103 51.6027 91.5783 51.546ZM94.2089 95.3175C93.3867 94.4003 92.1811 93.0737 91.1055 94.065C89.7251 95.3419 91.6992 96.0807 92.3116 97.0089C92.6499 97.5218 93.0292 98.0157 93.3921 98.5189C95.3555 97.9275 95.5058 96.7825 94.2089 95.3175ZM89.4284 58.8519C90.2638 54.883 89.3294 51.1837 87.9067 46.8362C86.9333 51.5451 88.085 55.2162 89.4284 58.8519ZM75.522 96.9707C74.5169 96.4169 73.0498 95.2387 72.1783 95.9498C78.6392 105.23 88.223 105.377 98.438 104.883C95.8651 103.317 94.8678 100.825 93.3926 98.6874C85.9466 97.4267 84.199 91.858 83.9078 85.1769C83.7704 87.8542 82.5813 88.9273 80.3567 88.3869C79.9969 89.7113 80.5607 90.8357 81.1568 91.9332C82.5083 94.4398 80.5801 96.3434 79.4854 97.9337C78.5943 99.2355 76.8822 97.7164 75.522 96.9707ZM70.1117 93.607C73.3323 96.6137 75.1773 93.1225 77.9715 91.6874C75.3035 91.1955 73.6849 87.9279 70.9298 90.1107C70.227 90.6698 68.5634 92.1636 70.1117 93.607ZM49.6374 79.1395L49.6366 79.1227C49.6366 79.1227 49.6357 79.1059 49.6352 79.0975C48.2955 80.0269 46.9328 78.2705 45.6276 78.7348C45.497 80.4178 45.8704 81.7628 47.2342 82.0956C50.3201 82.852 51.699 85.0792 52.9136 87.7025C53.3789 88.7142 54.0041 90.366 55.5513 89.8638C57.198 89.331 55.4338 87.621 56.1473 86.6234C57.8296 86.771 57.845 89.314 59.7654 89.028C59.6942 87.1871 59.7189 87.3374 61.2626 87.0881C63.2321 86.7743 65.3722 85.5419 65.5076 83.7912C65.7874 79.9777 63.3326 77.2931 60.2634 75.2471C59.5656 74.7783 59.0466 75.3109 58.403 75.5552C57.6764 75.8207 58.5054 78.6326 56.493 76.6829C55.4557 75.6759 52.9969 75.9648 53.8688 73.3333C54.4569 71.5504 53.265 70.9643 51.7677 70.6553C50.9387 73.6216 53.9078 77.2901 49.6458 79.1391L49.6374 79.1395ZM42.9662 72.9107C44.6913 75.642 46.8388 77.6016 49.5505 78.9251C48.8383 77.2188 49.5479 73.4165 47.7611 74.4872C44.7005 76.2985 44.8801 72.3387 42.9662 72.9107ZM27.5681 53.1823C30.4488 54.8423 33.803 56.7049 37.7365 56.9367C40.4293 57.0988 43.7815 57.4791 40.4553 52.4564C42.1551 53.2601 43.0702 53.7007 44.1831 54.2236C42.9526 49.209 38.1508 49.1068 35.4336 49.2829C33.0605 49.441 28.6439 48.6617 27.5761 53.1735L27.5677 53.1739L27.5681 53.1823ZM26.2161 120.511C25.4105 120.393 24.5233 119.842 23.9661 120.772C23.7572 121.12 23.9275 122.122 24.2035 122.251C26.9637 123.538 25.7761 125.765 25.9661 127.945C24.0137 126.818 23.2787 126.924 22.2666 128.164C22.1244 128.34 21.7123 128.505 21.5568 128.429C19.1685 127.173 18.5895 129.292 17.536 130.543C19.1717 131.569 20.0578 133.864 22.6372 133.308C25.1 132.775 26.5167 134.276 27.6788 136.539L27.6704 136.54C26.1691 136.795 24.9399 136.944 23.7606 137.242C23.2041 137.38 22.9438 137.874 23.0298 138.552C23.1198 139.305 23.2473 139.972 24.1554 139.959C30.4104 139.85 36.885 141.203 42.6203 137.441C42.216 136.148 40.7212 137.17 40.2166 135.891C45.7255 135.838 51.1976 134.439 55.7327 139.247C56.0957 137.021 53.4926 136.804 54.307 136.61C57.0327 135.953 55.8474 132.604 58.4159 131.837C52.9995 132.854 52.4908 127.001 48.8861 125.657C48.603 125.554 48.4627 124.964 48.3413 124.574C47.5984 122.12 39.0556 116.789 36.6223 117.405C34.5049 117.946 32.5489 119.32 30.1937 118.214C29.6845 117.971 28.9185 118.449 29.1022 119.063C30.7566 124.78 27.4629 120.699 26.2161 120.511ZM2.12185 108.904C2.55424 108.965 3.26347 109.492 3.27181 109.812C3.30812 111.789 4.42864 111.815 5.71622 111.175C6.65131 110.713 8.19183 110.885 8.39169 109.56C8.59067 108.219 7.30862 107.52 6.28925 107.497C5.2023 107.47 5.17871 106.056 4.50213 105.671C8.02452 105.284 18.0933 102.802 18.9026 101.547C20.1568 99.628 21.8891 99.2845 23.761 98.7147C26.9165 97.7491 27.7887 95.446 26.114 92.7121C25.3505 91.4718 24.9617 89.9929 25.2618 88.8148C26.3733 84.4944 23.372 82.9419 20.4434 82.2951C15.7605 81.2518 10.9146 80.9499 6.58707 78.4981C9.53779 81.4937 9.50489 82.7926 6.21923 85.7697C4.59629 87.2361 2.97116 88.5005 5.51482 90.633C7.48659 92.2901 4.99191 93.0189 4.40297 94.1447C5.60286 94.882 7.099 93.7255 8.12915 95.2382C6.3513 95.9968 4.63791 96.8615 2.84374 97.4693C-0.768892 98.7031 2.45381 102.232 0.570635 104.192C0.187639 104.591 1.96563 105.601 3.12455 105.718C2.01422 105.565 0.741358 105.362 0.358195 106.722C-0.011706 108.013 0.765955 108.722 2.12185 108.904ZM-17.214 136.871C-15.8589 136.715 -14.4482 136.498 -14.6241 134.907C-14.8107 133.274 -15.7241 131.259 -17.5116 131.352C-20.2809 131.497 -16.5215 134.67 -18.8757 135.029C-19.0654 136.707 -18.5103 137.023 -17.214 136.871ZM-39.0037 139.049L-29.5713 138.554C-28.7823 137.553 -27.9849 136.551 -26.9746 135.276C-31.4837 135.462 -35.8781 134.623 -39.0037 139.049ZM180.46 60.609C180.46 60.609 180.5 60.5816 180.525 60.5719C180.525 60.5635 180.524 60.5551 180.515 60.5472L180.46 60.609ZM261.674 118.464C255.858 123.25 260.657 129.24 259.593 134.308C258.907 137.595 258.996 141.692 256.962 144.469C254.81 147.404 251.929 150.233 247.692 150.32C245.851 150.358 245.083 151.763 244.117 152.917C238.772 159.295 236.915 167.217 234.557 174.896C233.78 177.405 233.738 180.145 232.08 182.38C231.199 183.563 231.153 184.921 231.28 186.38C231.698 191.32 230.755 192.102 225.369 191.298C225.563 193.065 228.695 192.623 227.987 194.361C227.54 195.463 225.961 196.16 224.806 196.92C219.111 200.655 214.876 206.394 213.077 212.199C211.651 216.789 209.329 220.979 207.736 225.409C206.002 230.216 203.048 234.869 199.593 238.95C194.695 244.732 188.935 250.105 189.894 258.772C190.008 259.819 189.213 260.543 188.762 261.409C186.458 265.784 185.068 270.413 185.095 275.415C185.112 277.663 184.762 279.669 183.259 281.652C181.551 283.906 181.452 286.834 181.971 289.662C183.152 296.145 178.525 300.666 177.036 306.927C172.948 300.866 173.508 293.888 176.801 288.476C178.916 284.996 179.768 280.706 179.547 276.489C179.447 274.591 177.219 272.374 180.96 271.496C181.259 271.43 181.026 269.235 180.082 268.552C178.499 267.414 177.735 265.205 175.687 264.815C173.656 264.433 173.569 262.947 173.221 261.112C171.85 262.742 171.145 265.171 168.807 264.729C167.159 264.42 168.131 265.632 168.143 265.699C168.682 267.473 168.717 268.625 166.216 268.436C164.459 268.309 164.638 270.111 164.318 271.231C162.194 278.713 161.073 286.377 159.909 294.044C157.695 294.026 157.051 292.173 156.298 290.654C154.5 287.008 152.127 284.757 147.817 283.602C143.967 282.565 140.525 279.655 137.438 276.792C137.128 276.505 136.843 276.2 136.558 275.895C134.335 273.468 131.619 272.212 128.331 272.898C124.202 273.763 124.235 277.754 123.816 280.522C123.149 284.962 121.582 289.433 122.896 294.114C123.526 296.339 122 298.364 121.258 300.425C124.131 300.493 123.723 302.342 123.16 304.132C122.793 305.306 122.342 306.508 121.637 307.497C121.009 308.372 122.702 310.971 119.553 310.125C117.095 309.462 116.389 308.362 117.323 306.106C115.34 306.639 116.576 310.331 113.004 309.921C110.413 309.618 110.332 309.041 111.323 307.069C110.671 307.145 110.322 307.079 110.17 307.222C109.448 307.9 109.724 309.629 108.029 309.255C107.817 309.207 107.505 308.886 107.513 308.709C107.592 307.484 108.473 306.806 109.363 306.127C110.852 304.988 112.109 305.368 113.014 307.225C113.625 305.87 112.344 305.205 113.127 304.405C113.235 304.374 113.35 304.318 113.468 304.32C116.693 304.37 116.668 304.371 117.304 299.798C118.243 293.002 120.163 286.272 118.671 279.317C123.088 277.064 119.049 272.736 121.266 269.267C124.081 264.858 123.216 258.796 123.042 253.39C123.001 251.968 122.95 250.665 123.6 249.427C125.11 251.571 126.511 253.738 128.13 255.742C128.742 256.502 129.629 258.174 130.925 256.556C131.612 255.695 133.152 254.907 131.896 253.262C129.376 249.975 132.452 247 132.439 243.067C133.043 244.468 133.206 245.664 133.712 245.839C134.715 246.183 135.096 245.11 135.104 244.301C135.119 242.666 137.137 241.507 136.088 239.625C135.335 238.266 134.879 236.799 135.578 235.196C136.714 235.995 135.643 237.399 136.494 238.231C138.558 236.665 143.595 237.884 140.77 231.672C141.28 231.932 141.79 232.183 142.3 232.443C142.907 234.559 143.523 236.675 144.419 239.795C144.594 235.111 143.454 231.498 144.067 227.625C146.209 228.347 146.732 230.779 148.688 231.67C149.913 232.229 150.456 234.408 152.32 233.687C154.274 232.927 154.512 231.036 154.398 229.181C156.232 228.857 156.271 231.197 157.802 231.201C159.087 229.693 158.497 227.762 158.973 226.086C160.831 224.767 160.462 222.217 161.886 220.652C164.812 221.888 165.034 225.17 167.18 228.065C167.212 225.452 166.767 223.866 165.609 222.487C163.778 220.3 164.922 219.339 167.088 218.754C167.122 218.752 167.174 218.791 167.247 218.888C169.81 217.87 171.421 219.377 172.744 221.355C173.621 220.264 172.849 219.816 172.616 219.222C172.091 217.885 170.419 216.473 172.021 215.092C173.607 213.729 174.314 215.974 175.436 216.514C176.127 216.848 176.265 217.237 177.372 216.842C180.164 215.845 176.612 214.068 177.135 213.771C178.726 212.82 179.082 213.181 179.523 213.57C180.828 214.715 182.588 217.141 183.84 215.829C185.739 213.843 182.036 213.363 181.635 211.969C180.72 208.791 179.578 205.961 176.994 203.696C175.953 202.782 177.314 202.416 178.124 202.298C179.327 202.134 180.214 202.837 181.186 203.401C182.132 203.941 184.048 204.708 184.134 204.569C187.163 199.272 188.742 204.993 191.59 205.542C190.64 202.518 191.25 199.066 186.694 198.833C185.454 198.772 184.712 197.623 184.521 196.538C184.153 194.51 183.597 192.56 182.857 190.485C185.243 192.179 188.537 191.122 190.233 193.788C191.38 192.557 189.759 191.808 190.417 190.56C190.582 190.333 190.96 190.641 191.162 190.968C193.155 194.308 195.177 190.168 197.283 190.857C197.531 190.937 196.836 189.247 196.238 188.587C194.122 186.273 192.352 184.285 196.097 181.553C198.107 180.092 195.525 176.908 197.522 174.715C199.678 172.344 198.521 169.044 198.545 166.289C198.574 162.674 200.438 161.152 203.121 161.45C207.92 161.973 211.847 157.741 216.723 159.423C217.546 159.708 218.06 158.603 218.679 158.057C220.715 156.274 222.796 156.157 225.675 156.191C228.934 156.231 232.854 155.571 236.231 154.164C236.478 154.058 236.769 153.361 236.669 153.223C236.354 152.818 235.891 152.345 235.416 152.269C234.236 152.062 232.851 152.614 231.943 151.036C233.287 149.222 235.603 151.013 237.12 149.788C237.002 148.16 234.595 148.48 234.64 146.616C239.65 147.634 243.46 143.105 248.574 143.704C250.107 143.885 251.746 135.822 250.637 134.103C249.501 132.327 244.813 131.503 242.931 132.848C241.528 133.856 241.302 135.317 241.616 136.977C242.025 139.162 241.092 140.946 239.195 141.854C237.784 142.534 236.993 141.085 236.266 140.07C235.068 138.406 233.327 136.821 235.784 134.73C236.485 134.137 236.611 132.834 237.322 132.283C240.768 129.626 239.758 128.019 236.265 126.711C234.376 126.01 234.755 123.927 233.936 122.58C235.656 121.361 239.174 123.468 239.302 120.917C239.44 118.097 236.164 119.978 234.485 119.401C230.834 118.143 227.634 115.86 223.639 115.252C222.248 115.039 222.553 112.344 223.314 110.814C223.992 109.456 224.772 108.134 226.068 107.174C226.724 106.684 226.337 105.879 226.06 105.254C225.717 104.48 225.304 104.788 224.802 105.176C223.783 105.962 222.367 106.879 221.607 105.377C220.687 103.556 219.96 101.252 220.769 99.3399C221.39 97.867 223.362 98.4038 224.747 98.8114C225.268 98.961 225.659 99.3616 226.387 98.8012C226.23 97.2596 225.018 95.807 225.992 93.8271C226.638 92.5129 225.125 91.5814 223.406 91.6968C222.199 91.7853 215.806 85.8957 215.687 84.7396C215.585 83.7678 215.897 82.9681 217.082 83.5799C218.414 84.2681 219.677 85.0948 221.39 85.662C220.2 83.3575 223.567 79.1885 217.975 78.6224C217.247 78.5511 216.941 77.3542 217.715 76.564C218.882 75.3742 218.813 73.8953 218.185 72.6732C217.773 71.8777 217.482 70.3347 216.106 70.5837C214.672 70.8441 215.531 72.1384 215.323 72.9832C214.642 75.7311 214.34 78.3159 216.573 80.6248C214.104 79.4233 213.124 77.4195 213.445 74.7241C213.662 72.927 214.1 71.1521 214.292 69.3564C214.52 67.2976 212.836 65.996 211.466 65.6888C209.533 65.2595 211.158 67.8444 209.479 68.5725C208.801 66.5445 208.093 64.4337 207.346 62.2323C204.262 63.7584 207.239 66.7779 205.425 68.5997C203.205 68.4802 204.539 64.6958 200.555 64.795C196.74 64.8939 198.77 66.6911 198.875 67.2584C199.224 69.0932 200.424 70.7991 199.348 72.7591C199.317 72.8112 199.08 72.7732 198.968 72.7285C198.856 72.6754 198.758 72.571 198.662 72.5003C199.077 74.6432 199.561 76.8163 198.925 79.604C197.659 77.455 198.499 75.0189 196.662 73.6832C195.316 74.3265 197.132 75.5791 195.203 76.9857C194.571 71.1901 193.982 65.906 193.403 60.6298C196.092 62.8136 196.225 66.1506 197.155 69.1174C197.155 69.1174 197.155 69.1174 197.155 69.1258C200.467 62.3064 194.799 57.7181 192.845 51.5874C191.787 55.0121 192.143 57.7815 193.255 60.5281C191.685 62.0591 191.839 63.7104 192.6 65.7005C193.117 67.0464 192.841 68.6949 192.908 69.9801C185.853 70.552 182.988 65.8168 180.525 60.5719C182.077 59.6736 183.604 59.1134 181.932 56.5899C180.479 54.3918 183.56 51.2065 180.97 48.6721C179.427 49.57 180.429 51.1937 179.796 52.7682C178.822 50.8652 178.639 48.9964 176.972 47.5171C175.365 46.0936 175.036 43.4997 171.849 46.758C173.042 43.0314 170.569 40.6425 170.242 37.7705C171.566 37.1873 171.467 38.9866 171.841 38.8913C173.752 32.4906 177.17 26.2469 172.297 19.8228C174.746 21.4212 175.344 23.8494 176.349 26.012C177.43 28.3306 179.192 29.8303 181.641 29.0449C187.617 27.1398 193.555 27.0897 199.67 28.1506C204.901 29.0641 208.621 25.2303 212.825 23.2244C213.757 24.161 213.994 25.3026 213.615 26.0973C211.324 30.8838 214.129 33.8196 217.118 36.9058C219.601 39.4795 219.362 39.5847 218.133 44.3829C217.602 46.4575 217.666 48.4925 220.556 49.1918C221.45 49.406 221.929 49.8695 222.499 48.8625C224.399 45.4611 227.535 42.3487 228.53 39.02C229.519 35.7253 231.599 32.7103 231.842 29.3199C232.001 27.0626 233.626 25.9415 234.291 24.1799C235.516 20.9065 238.152 17.8877 236.248 14.0033C236.144 13.7898 236.044 13.3233 236.094 13.3039C241.205 11.1156 240.556 5.48087 243.307 0.645066C243.984 4.90531 244.222 8.15258 244.025 11.4563C243.74 16.1376 243.649 20.834 243.187 25.4909C242.978 27.6076 244.686 29.2112 244.324 31.1338C243.876 33.5157 242.578 35.5463 243.093 38.3241C243.636 41.2943 242.585 44.3564 240.409 46.8373C239.822 47.5083 239.31 48.8154 239.559 49.5604C241.938 56.7469 237.787 64.402 241.632 71.6128C245.523 78.9054 246.946 87.1023 248.488 95.1834C248.882 97.2432 249.827 99.2069 251.884 100.245C258.885 103.778 260.847 110.219 261.722 117.283C261.768 117.676 261.876 118.302 261.674 118.464ZM185.963 50.3393C187.125 50.8259 187.267 52.242 188.313 54.2255C188.335 50.3161 191.044 48.0431 189.364 44.8883C187.3 46.2936 188.06 49.2355 185.963 50.3393ZM184.91 58.8091C184.583 55.9456 186.641 53.3108 185.833 50.4135C185.824 50.414 185.808 50.4232 185.8 50.4321C185.778 50.0121 185.654 49.5638 185.768 49.1871C186.117 47.9728 185.995 46.6062 184.72 46.5298C183.1 46.4379 183.578 48.1816 183.527 49.1277C183.427 50.9186 183.332 52.8019 183.8 54.4957C184.185 55.9075 182.637 57.9933 184.91 58.8091ZM185.323 59.1581C186.94 61.7435 189.347 63.8494 190.082 67.7445C191.798 60.8319 190.65 59.0052 185.323 59.1581ZM180.42 60.6616L180.452 60.6179C180.452 60.6179 180.436 60.6271 180.428 60.636L180.429 60.6612L180.42 60.6616ZM158.819 226.195C158.868 226.167 158.908 226.123 158.957 226.095C158.957 226.095 158.956 226.078 158.956 226.07L158.811 226.195L158.819 226.195ZM172.947 113.462C176.284 113.228 178.656 115.95 182.124 115.482C188.24 114.656 193.245 118.302 198.512 120.705C200.159 121.461 203.105 121.643 202.479 123.816C201.794 126.168 203.105 130.471 198.239 130.423C197.153 130.412 196.055 130.992 194.961 131.302C198.794 133.476 202.819 133.358 206.607 132.418C210.727 131.394 214.616 132.546 218.724 132.743C217.136 131.184 214.486 132.149 213.297 130.172C213.62 128.791 215.464 129.789 215.757 128.477C214.804 127.625 213.098 128.793 212.364 126.827C214.913 126.811 216.045 123.534 218.984 124.374C219.104 124.41 219.568 123.796 219.617 123.448C219.778 122.185 215.533 117.606 214.059 117.422C211.255 117.072 208.021 117.343 208.543 112.851C208.683 111.656 207.293 111.148 206.609 110.308C203.101 105.994 200.001 101.742 201.651 95.3469C202.12 93.5283 204.216 90.8241 201.543 88.6142C203.732 88.1541 204.154 90.1198 205.266 90.7775C205.855 89.5 204.127 88.3103 205.616 87.4995C207.563 86.4456 207.841 89.177 209.596 89.4219C209.155 87.752 208.55 84.8778 208.366 84.9042C205.309 85.3424 206.155 82.6953 205.289 81.4183C203.92 79.3927 204.356 76.9524 203.426 74.7775C204.476 78.117 203.288 82.5845 201.969 83.7402C198.663 86.6509 198.057 89.3865 199.456 93.5921C195.609 91.9743 192.904 89.9598 191.148 86.8005L191.218 86.8642C189.581 82.1152 186.283 83.4167 182.864 84.6488C183.742 85.6641 185.862 84.8454 185.932 86.838C185.98 88.2337 184.999 87.9819 184.232 87.9547C174.009 87.6482 170.63 102.33 173.258 108.973C172.503 110.301 170.58 107.631 170.303 109.734C170.07 111.549 171.605 113.557 172.947 113.462ZM68.6493 257.579C65.8203 258.511 63.3842 257.628 61.1085 255.953C60.9686 255.851 60.5392 256.008 60.3285 256.162C57.884 258.009 56.523 256.766 55.9924 254.991C53.8156 253.758 53.667 260.395 51.1931 255.42C50.7989 254.64 51.2991 253.266 49.9471 253.16C48.8063 253.069 48.5075 254.272 47.8895 255.003C47.3112 255.691 47.3113 257.94 45.9534 256.756C42.0651 253.371 44.1166 258.638 43.1542 258.739C40.1083 256.818 37.2888 256.005 33.8676 256.235C32.5006 256.324 30.075 258.691 28.9233 255.34C28.6156 254.447 27.1915 255.052 26.2494 255.379C24.745 255.896 23.2013 256.306 21.2622 256.879L20.6067 244.371L20.5983 244.372C20.2605 244.347 19.9221 244.315 19.5843 244.29C18.378 249.854 19.4096 255.569 18.933 261.246C19.0736 257.988 16.9331 255.842 14.8462 253.433C13.8279 257.606 11.448 261.007 10.6178 265.397C10.0909 268.187 4.42927 269.823 2.99047 274C1.50762 272.36 2.92796 270.239 1.01001 268.966C0.106248 272.113 1.21963 275.053 0.870478 278.988C3.70864 276.464 6.73016 276.154 9.08234 274.473C17.5652 268.385 27.6477 268.252 37.3492 267.272C43.9368 266.607 50.6606 267.417 57.308 266.285C61.4364 265.58 65.7211 264.968 69.7515 266.888C71.866 267.898 72.9207 270.681 76.3436 270.805C74.7792 268.57 73.916 266.552 73.7265 264.38C73.44 261.001 68.5595 261.164 68.6493 257.579ZM-21.4816 171.208C-21.4816 171.208 -21.4745 171.182 -21.467 171.165C-21.4502 171.164 -21.4334 171.163 -21.4082 171.162C-21.4082 171.162 -21.4082 171.162 -21.3999 171.161L-21.4082 171.162L-21.4074 171.179C-21.4074 171.179 -21.4794 171.25 -21.4953 171.267C-19.1631 170.168 -16.9456 168.805 -13.8088 168.447C-15.3668 167.139 -16.6568 168.857 -17.7506 167.576C-16.3401 165.91 -14.2399 166.002 -12.2969 165.504C-10.0964 164.942 -6.63065 164.921 -8.53664 160.826C-8.64127 160.596 -8.33331 159.889 -8.13323 159.853C-7.3086 159.692 -6.19911 159.667 -5.86446 160.433C-5.46226 161.364 -4.85073 162.435 -5.5311 163.583C-7.02262 166.112 -4.00255 164.008 -4.0849 165.166C-4.25563 166.565 -5.98019 165.611 -6.56115 166.568C-6.49184 166.767 -6.47467 167.094 -6.34571 167.146C-5.32288 167.556 -3.28749 166.573 -3.70218 168.937C-3.96126 170.416 -3.77656 172.495 -6.5532 171.697C-8.61217 171.106 -9.3991 172.95 -9.43731 174.308C-9.48092 176.205 -10.8498 176.9 -12.2007 178.58C-9.25597 177.929 -6.83508 177.398 -3.29099 176.622C-8.05966 181.488 -9.59418 187.532 -14.6448 190.871C-15.8322 191.658 -15.1884 192.702 -15.6801 193.595C-17.8936 197.603 -20.7162 196.892 -24.0417 195.415C-23.192 193.484 -22.1441 191.803 -20.2681 190.669C-19.5097 190.208 -19.2485 189.091 -20.0032 188.499C-20.1436 188.388 -20.2898 188.328 -20.4342 188.302C-18.6898 186.905 -18.1382 184.585 -17.4147 181.852C-19.9694 184.647 -23.6869 184.682 -25.3857 187.753L-25.4109 187.754C-28.0375 182.754 -24.9376 181.37 -20.9169 180.216C-19.3913 179.782 -18.1504 178.412 -16.7228 177.554C-15.8826 177.046 -14.8376 176.756 -15.0551 175.495C-15.1028 175.228 -15.6698 174.845 -15.9799 174.87C-17.0037 174.923 -18.0451 174.801 -18.7286 176.05C-20.4561 179.215 -20.5294 179.101 -25.4694 179.09C-26.8916 179.089 -27.7912 181.191 -29.9579 180.311C-27.9679 178.943 -28.9917 175.948 -26.2275 175.061C-28.804 173.588 -30.6755 177.055 -33.8239 175.266C-29.3296 173.674 -25.0542 173.366 -21.4816 171.208ZM-22.1273 189.233C-21.4581 188.996 -20.902 188.689 -20.4338 188.311C-21.0547 188.183 -21.6568 188.737 -22.1273 189.233ZM143.37 54.8878C145.734 58.0742 146.899 61.8541 148.889 65.1359C150.501 67.7889 149.792 69.6875 148.977 72.6025C147.044 69.9158 146 67.1656 143.775 65.665C141.117 67.4468 145.706 69.1015 143.579 70.2742C141.068 71.6608 143.249 73.4502 142.817 75.0058C142.343 76.7069 147.698 80.1408 148.856 79.1115C152.016 76.3094 154.976 73.2315 156.316 69.0845C156.938 67.1483 156.508 65.0482 156.847 63.0005C157.09 61.5306 157.606 58.7071 154.115 59.2101C153.046 59.3588 152.555 58.3484 152.578 57.1681C152.613 55.7511 152.455 54.3359 152.38 52.9163C148.216 54.5496 149.79 56.8087 151.229 59.2181C151.644 59.9039 152.489 60.9294 151.444 61.8602C150.873 62.3786 150.181 62.3307 149.478 62.0895C148.33 61.7033 147.998 60.8278 148.204 59.7726C148.879 56.2837 145.799 52.7474 149.074 49.5688C147.079 48.7384 146.081 50.4079 144.6 49.6179L144.599 49.5927C145.173 47.061 148.425 45.1976 146.804 42.0564C149.067 41.0871 148.22 39.8512 147.412 38.2342C146.64 36.6827 146.722 34.7074 145.951 33.1559C145.546 32.3432 144.6 33.5636 143.903 33.7433C141.287 34.4111 142.285 37.2394 140.594 38.6758C136.075 42.5261 136.658 50.4385 140.904 54.7055C142.094 55.8981 142.383 53.5582 143.37 54.8878ZM156.12 43.1939C157.047 45.47 157.661 48.3438 161.049 48.4526C162.22 48.4839 163.455 47.4674 162.643 46.9035C159.21 44.506 161.635 41.1697 160.71 37.9669C161.476 32.8308 156.776 29.371 155.156 24.6379C154.292 22.1225 153.078 22.3883 155.873 21.4501C157.187 21.0022 157.522 20.4877 156.876 19.4096C155.807 17.6379 154.801 15.7702 153.45 14.2322C152.187 12.7906 150.724 12.1598 150.022 14.993C149.001 19.1064 148.421 23.1293 150.051 27.2554C152.137 32.5369 153.968 37.9327 156.12 43.1939ZM130.939 96.4332C129.249 97.5747 127.173 96.5043 126.284 94.9421C124.615 92.0141 121.717 91.7869 119.116 90.6429C118.726 92.188 122.602 93.2567 119.455 94.5419C117.667 95.2673 116.367 96.641 116.913 97.9095C117.565 99.4252 119.01 100.664 121.583 100.15C124.456 99.5779 127.232 101.151 129.602 103.023C130.339 103.607 130.829 104.129 130.077 105.036C129.563 105.661 127.25 104.241 128.27 106.512C128.814 107.747 130.132 108.167 131.459 108.122C134.844 108.004 138.198 108.089 141.756 110.143C140.244 106.02 137.231 107.626 135.117 107.114C138.076 102.065 142.802 108.909 146.131 105.475C143.345 102.252 138.44 103.722 134.988 100.306C136.514 100.529 137.303 100.64 138.388 100.793C137.934 99.04 136.287 98.6041 135.902 97.6725C134.686 94.7039 133.361 94.7902 130.939 96.4332ZM-18.0297 249.437C-16.9726 248.573 -16.3423 248.397 -17.0765 246.751C-17.5913 245.598 -17.1039 243.821 -15.5428 242.779C-14.0304 241.773 -13.0726 240.299 -13.6221 238.323C-14.3934 239.341 -15.148 240.358 -16.051 241.592C-16.5635 240.322 -15.3364 239.331 -16.6882 238.265C-17.8956 240.114 -19.2001 241.875 -20.2366 243.774C-21.2881 245.708 -22.072 247.77 -22.999 249.832C-24.5681 248.794 -25.9185 247.913 -27.5393 246.853C-27.9893 249.344 -24.8776 250.916 -26.069 252.427C-26.9057 253.482 -29.3844 253.233 -31.292 253.602C-30.0033 251.378 -33.161 250.213 -31.9081 248.109C-33.0826 248.819 -34.2624 249.429 -34.5934 250.339C-35.4166 252.614 -37.0638 256.668 -34.2531 256.832C-31.1976 257.009 -29.4891 258.781 -27.0786 259.497C-25.6512 259.919 -24.3907 260.367 -23.3472 258.442C-22.1737 256.266 -19.7599 255.601 -17.4701 254.815C-11.1958 252.667 -5.70616 249.195 -0.938873 244.625C-7.7966 246.719 -13.113 251.892 -20.0026 254.502C-20.2376 251.945 -19.2564 250.436 -18.0297 249.437ZM-13.6548 238.182C-13.6552 238.174 -13.6557 238.165 -13.6561 238.157L-13.6552 238.174L-13.6548 238.182ZM-13.5996 238.272C-13.5996 238.272 -13.5687 238.22 -13.5448 238.193C-13.5784 238.195 -13.6119 238.197 -13.6455 238.198C-13.6455 238.198 -13.6455 238.198 -13.6623 238.199C-13.6623 238.199 -13.6623 238.199 -13.6446 238.215C-13.634 238.257 -13.6323 238.29 -13.6217 238.332C-13.6137 238.323 -13.6062 238.306 -13.5899 238.296C-13.5899 238.296 -13.5899 238.296 -13.5991 238.28L-13.5996 238.272ZM107.37 200.169C104.359 202.777 101.545 205.427 98.007 207.128C96.9646 207.629 95.8774 209.202 97.0087 210.718C98.1303 212.209 95.3935 215.545 99.4224 215.671C99.8102 215.684 99.9058 216.867 99.5471 217.568C98.6537 219.308 99.7872 220.866 100.163 222.421C100.53 223.96 102.027 225.061 103.506 225.185C105.044 225.315 106.244 223.492 106.265 222.438C106.367 217.64 112.268 216.564 112.123 211.712L112.122 211.695C111.581 211.959 110.751 212.188 110.112 212.676C108.891 213.616 107.544 215.06 106.298 213.28C105.371 211.965 106.609 210.864 107.904 210.046C110.087 208.66 109.456 207.227 107.486 206.404C105.379 205.529 105.352 204.545 106.728 203.007C107.332 202.335 108.094 201.622 107.37 200.169ZM124.838 165.628C124.838 165.628 124.838 165.628 124.83 165.629L124.838 165.628ZM145.268 146.659C143.57 145.088 141.925 141.468 138.946 142.913C136.894 143.905 134.33 145.084 133.096 147.549C134.192 148.385 135.469 146.903 136.495 148.483C133.538 149.868 131.215 151.952 129.781 154.942C129.409 155.711 128.799 156.105 127.904 155.082C126.597 153.592 125.128 153.181 124.115 155.525C123.184 157.671 124.297 158.994 126.055 159.786C126.986 160.209 128.254 159.831 128.966 160.906C127.863 162.328 125.21 162.13 124.838 165.62C128.054 163.084 130.938 161.754 133.395 159.511C136.446 156.715 138.474 152.7 143.308 151.815C144.942 151.519 146.665 147.95 145.268 146.659ZM95.3124 148.005C95.3124 148.005 95.3826 148.06 95.4179 148.092C95.4153 148.042 95.4294 147.99 95.4348 147.931L95.3124 148.005ZM4.62468 227.63C4.62248 227.588 4.6375 227.554 4.64369 227.511C4.61057 227.521 4.58627 227.539 4.55314 227.55L4.62468 227.63ZM-45.1757 178.312C-42.9485 176.334 -40.4823 176.988 -38.31 175.888C-33.0307 173.22 -27.5624 170.945 -21.4511 171.147C-21.026 170.106 -19.2698 169.256 -20.6445 168.073C-21.8951 167.009 -23.5235 166.606 -25.2996 167.558C-29.4172 169.754 -33.6285 171.768 -38.4511 171.912C-39.8291 171.95 -41.344 171.785 -42.481 172.729C-44.9896 174.798 -47.5656 175.742 -50.6785 173.184C-49.6286 177.644 -47.1057 180.022 -45.1757 178.312ZM156.683 215.786C154.367 213.01 153.718 210.425 154.422 207.49C155.313 203.771 154.538 200.055 155.077 196.38C155.194 195.565 155.092 194.568 154.126 194.282C152.955 193.939 152.906 195.087 152.529 195.764C149.847 200.638 150.395 205.781 152.063 210.638C152.479 211.837 152.734 213.483 153.321 214.261C154.949 216.425 151.871 219.349 153.249 219.63C157.026 220.401 156.676 224.168 158.837 225.899C158.91 222.307 158.731 218.248 156.683 215.786ZM158.833 226.144L158.978 226.018C158.926 225.979 158.881 225.939 158.837 225.899C158.841 225.975 158.837 226.051 158.832 226.127L158.833 226.144ZM94.3975 290.31C92.6998 289.708 92.5614 288.191 92.8271 286.838C93.1591 285.144 93.8987 283.522 94.6203 281.395C91.6256 285.106 89.2308 292.88 90.8212 293.201C91.0435 292.625 91.2653 292.041 91.5614 291.267L91.5698 291.267C92.1056 293.142 92.3677 294.931 93.1059 296.493C94.3465 299.131 97.254 299.375 98.3082 296.852C100.417 291.805 102.138 286.602 104.023 281.458C101.734 283.861 100.274 286.666 98.3272 289.186C97.0978 290.775 95.9578 290.86 94.3975 290.31ZM-10.7851 239.792C-6.16661 235.111 0.112169 232.567 4.47275 227.621C3.11553 227.414 2.37111 228.624 1.28276 229.052C3.32368 226.73 3.4949 222.45 8.52154 222.507C6.80446 224.265 4.85652 225.31 4.64369 227.511C8.59517 225.838 12.3598 223.973 13.721 219.438C12.8807 218.336 11.9016 220.367 10.999 219.041C12.634 217.162 14.8744 215.435 13.8322 211.927C10.305 214.63 6.83707 217.019 3.70869 219.786C1.23981 221.97 -0.808669 224.63 -3.03643 227.08L-3.01965 227.079C-2.77604 228.195 -2.31372 228.828 -1.70824 229.141C-2.32211 228.828 -2.79283 228.196 -3.03643 227.08L-3.05322 227.081C-7.76628 229.636 -10.788 233.795 -13.5532 238.193C-12.2494 238.184 -12.2314 241.258 -10.7851 239.792ZM4.53636 227.55C4.53636 227.55 4.4966 227.595 4.47275 227.621C4.51515 227.627 4.55667 227.617 4.6079 227.631L4.53636 227.55ZM-33.4345 163.748C-35.9079 164.08 -38.5296 163.51 -40.74 165.167C-41.7591 160.975 -44.1677 164.471 -45.3156 164.564C-44.4487 165.05 -43.9924 167.334 -41.5994 167.073C-35.199 166.367 -28.7241 166.281 -21.6079 165.908C-22.9218 163.155 -24.9401 162.216 -26.3306 162.98C-28.7432 164.311 -31.0945 163.44 -33.4345 163.748ZM-45.3156 164.564C-45.4194 164.511 -45.5223 164.474 -45.6318 164.471C-45.5435 164.551 -45.4326 164.579 -45.3156 164.564ZM115.774 239.308C114.943 237.254 114.958 235.611 116.759 234.169C117.243 233.781 117.411 233.124 116.985 232.708C116.64 232.381 115.867 232.093 115.506 232.264C114.282 232.825 112.515 233.002 112.226 234.541C111.745 237.093 109.555 238.328 108.336 240.288L108.353 240.287C108.353 240.287 108.268 240.434 108.16 240.608C107.101 243.199 107.85 245.94 107.537 248.643C108.17 247.709 108.53 246.704 108.778 245.672C109.658 242.071 109.994 241.894 113.642 241.652C114.766 241.576 116.462 241.024 115.774 239.308ZM122.125 240.542C121.189 240.018 119.747 239.807 119.04 240.763C118.166 241.92 116.773 243.114 117.257 244.806C117.907 247.089 116.667 248.805 115.961 250.745C114.711 254.18 112.964 257.615 114.621 261.462C114.776 257.352 116.467 253.802 118.311 250.294C118.345 250.309 118.379 250.315 118.414 250.33C118.41 250.272 118.399 250.222 118.388 250.163L118.38 250.164C118.38 250.164 118.38 250.164 118.388 250.155L118.284 250.27C119.913 247.944 121.395 245.558 122.029 242.729C122.208 241.97 123.113 241.088 122.133 240.542L122.125 240.542ZM-38.2494 244.643C-39.2788 243.947 -42.958 241.823 -38.2539 239.741C-41.2392 237.69 -43.4481 238.573 -45.1021 240.411C-47.1381 242.666 -44.2896 244.033 -43.6336 245.792C-43.3003 246.693 -42.0888 246.689 -41.6857 247.796C-40.6355 250.655 -39.2164 248.189 -38.2853 247.652C-37.109 246.975 -36.1548 246.074 -38.2494 244.643ZM157.189 180.796C157.189 180.796 157.145 180.773 157.119 180.757C157.104 180.775 157.088 180.793 157.072 180.81L157.072 180.819C157.109 180.884 157.146 180.941 157.183 181.007C157.196 180.939 157.209 180.862 157.222 180.794L157.206 180.795L157.189 180.796ZM158.979 195.687C158.931 195.74 158.883 195.793 158.835 195.837C158.837 195.863 158.838 195.879 158.839 195.905L158.987 195.686L158.979 195.687ZM154.767 184.679C154.02 184.71 153.702 186.521 154.091 186.391C157.003 185.438 155.335 187.488 155.278 188.165C155.052 190.923 156.263 193.319 157.074 195.795C157.425 196.863 158.229 196.467 158.835 195.837C158.937 194.56 158.919 193.264 158.989 192.022C159.189 188.297 159.28 184.418 157.166 181.008C156.911 182.554 157.513 184.569 154.767 184.679ZM193.262 60.5025C193.262 60.5025 193.254 60.5113 193.246 60.5201C193.246 60.5201 193.246 60.5201 193.246 60.5285L193.262 60.5109C193.306 60.5423 193.35 60.5821 193.394 60.6219C193.39 60.5379 193.377 60.4543 193.364 60.3707L193.253 60.5029L193.262 60.5025ZM167.958 287.853C167.91 293.684 170.391 299.122 171.83 305.389C169.246 303.275 169.347 300.078 165.783 298.218C167.579 301.83 168.798 304.537 170.263 307.105C170.883 308.184 172.237 308.164 173.307 307.712C174.665 307.135 173.88 306.124 173.589 305.238C171.704 299.44 169.835 293.651 167.958 287.853ZM167.956 287.828C167.956 287.828 167.957 287.844 167.958 287.853C167.957 287.844 167.957 287.836 167.956 287.828ZM7.33472 202.269C8.47499 202.993 8.8727 201.751 9.40543 201.319C11.1083 199.932 13.2244 199.847 15.1418 199.182C15.2323 199.143 15.4125 199.05 15.6665 198.918C15.1758 196.299 15.6157 193.935 17.4543 191.926C14.0866 193.981 10.5053 195.491 7.4467 198.305C5.25567 200.332 8.85691 201.128 7.33472 202.269ZM104.061 235.146C102.658 235.346 100.799 234.559 100.275 236.751C99.7019 239.148 97.8648 240.702 95.995 241.633C93.7476 242.745 93.2376 244.414 92.8049 246.433C96.4697 242.181 102.477 241.193 105.93 236.766C106.267 235.165 105.315 234.979 104.061 235.146ZM106.002 236.687L105.985 236.688L105.986 236.696C105.97 236.722 105.946 236.74 105.93 236.766C105.931 236.783 105.932 236.8 105.925 236.826L105.909 236.843C105.909 236.843 105.909 236.843 105.918 236.843C105.918 236.843 105.942 236.833 105.95 236.824C105.957 236.79 105.964 236.765 105.971 236.731L106.001 236.678L106.002 236.687ZM125.414 185.603C126.877 186.074 127.917 185.194 128.895 183.786C129.849 182.414 131.353 180.44 132.676 180.8C137.875 182.212 136.096 178.768 136.165 176.389C132.628 179.708 126.131 179.054 125.414 185.603ZM159.883 294.181C159.883 294.181 159.891 294.18 159.899 294.171C159.739 294.331 159.571 294.483 159.521 294.671C159.017 296.93 164.78 307.654 166.876 308.327C167.21 308.436 167.756 308.416 167.964 308.211C168.188 307.989 168.269 307.445 168.184 307.104C167.887 305.941 166.793 305.442 166.044 304.639C160.791 298.976 160.356 296.304 163.841 291.514C164.069 291.198 163.966 291.01 163.492 290.951C161.867 291.415 161.203 293.033 160.011 294.064L160.027 294.047C160.027 294.047 160.019 294.047 160.01 294.048C160.01 294.048 160.018 294.039 160.026 294.03L160.018 294.03L160.002 294.048C160.002 294.048 159.943 294.043 159.918 294.044C159.912 294.086 159.905 294.129 159.899 294.171L159.883 294.189L159.883 294.181ZM-11.2553 277.223C-10.0185 281.555 -6.22047 278.56 -3.77245 279.51C-2.70721 279.926 -3.00401 277.313 -2.97949 276.015C-2.94791 274.691 -2.99229 273.362 -3.0031 272.032C-3.81045 277.019 -7.90067 276.525 -11.2553 277.223ZM-43.976 187.396C-43.976 187.396 -43.9844 187.397 -43.9928 187.397L-43.976 187.396ZM-45.9697 184.839C-45.7479 184.415 -46.0135 183.039 -46.0787 182.116C-46.1625 181 -46.8853 179.892 -48.1463 179.916C-49.8025 179.944 -49.6446 181.351 -49.4209 182.409C-48.9059 184.85 -48.2831 187.26 -49.8759 190.586C-47.2826 189.17 -45.6289 188.292 -43.9928 187.397C-45.4674 187.037 -47.5735 187.956 -45.9697 184.839ZM101.9 144.922C102.649 145.582 104.134 145.807 105.405 145.008C107.245 143.842 109.678 143.689 111.238 141.51C109.056 140.664 107.069 141.602 105.201 140.647C104.674 140.38 102.468 140.521 102.718 141.914C102.978 143.341 101.238 144.333 101.9 144.922ZM92.7075 234.621C93.3981 233.346 94.6036 232.104 93.498 230.275C92.4405 230.971 91.3883 231.607 90.3998 232.333C88.3987 233.811 88.3917 236.405 87.1366 238.307C87.4585 238.509 87.791 238.913 88.0927 238.889C90.7153 238.676 91.6556 236.546 92.7075 234.621ZM137.763 202.24C140.042 200.604 142.114 198.71 142.806 195.372C139.261 195.802 137.939 198.516 135.745 200.004C134.42 200.907 135.473 201.888 135.766 202.505C136.305 203.639 137.358 202.531 137.763 202.24ZM163.198 206.988C163.786 211.152 162.843 215.792 167.102 218.702C167.136 218.701 167.188 218.74 167.261 218.837L167.269 218.837C168.78 217.966 168.569 216.663 167.692 215.673C165.456 213.145 164.361 210.078 163.198 206.988ZM111.747 245.003C111.588 247.26 112.461 248.983 111.127 250.342C110.228 249.883 111.341 248.637 110.039 248.209C107.901 251.252 108.938 254.331 110.25 257.37C108.842 253.14 116.113 250.266 111.747 245.003ZM-40.2045 197.382C-43.1641 196.948 -46.5266 199.904 -48.2214 195.503C-49.5353 197.888 -49.2172 199.944 -48.0038 201.581C-47.4152 202.376 -46.3585 201.023 -45.5108 200.659L-45.6142 200.774C-45.6142 200.774 -45.6142 200.774 -45.6226 200.774L-45.6142 200.774C-44.3318 199.073 -41.93 199.14 -40.2045 197.382ZM108.933 235.767C107.916 236.123 106.925 236.478 105.942 236.825C105.754 237.576 105.532 238.32 105.396 239.086C105.216 240.148 103.18 241.131 104.825 242.173C106.244 243.067 107.367 241.854 108.143 240.609C108.243 240.436 108.313 240.331 108.336 240.288C109.099 238.934 109.547 237.537 108.933 235.767ZM160.528 197.155C160.969 195.759 160.049 195.555 158.947 195.874C158.144 199.344 156.38 202.78 158.511 206.349C159.139 203.234 159.566 200.154 160.528 197.155ZM158.987 195.686L158.839 195.905C158.839 195.905 158.913 195.884 158.947 195.874C158.96 195.806 158.982 195.745 158.995 195.677L158.987 195.686ZM84.614 234.169C85.6718 234.442 87.9102 234.283 85.845 236.143C83.29 238.45 80.4868 240.517 77.598 242.395C76.2552 243.266 74.977 242.962 76.0029 240.862C74.1915 241.462 72.0539 241.296 70.6861 243.297C71.4715 240.299 73.0165 237.346 68.5122 235.695C72.1936 235.292 73.1151 232 75.2005 230.046C73.7044 231.043 71.9482 231.573 70.1386 232.367C70.3672 230.468 72.1746 230.433 73.0479 229.435C69.9454 228.199 69.7232 225.566 70.2153 223.072C70.5004 221.609 70.7718 220.205 70.7946 218.713C70.8116 217.591 70.3904 216.62 69.5265 216.353C69.0306 216.202 68.072 217.019 67.556 217.61C66.6107 218.679 66.0299 221.085 64.2696 219.77C62.6056 218.527 66.076 217.629 65.4093 215.988C68.3483 215.387 68.9557 212.045 71.5372 210.402C70.78 213.937 72.3542 215.876 75.6462 217.035C76.5379 217.35 76.7023 219.363 77.4953 220.366C78.9556 222.218 80.4042 225.453 83.2917 220.98C82.2848 222.962 82.6956 225.181 80.6668 226.29C83.8702 226.88 82.6095 230.282 84.1515 231.927C84.3138 230.529 85.1916 229.616 86.4292 229.306C87.5838 229.018 88.7546 226.632 90.0558 229.142C90.2435 229.511 90.2408 229.46 88.2393 231.09C87.0047 232.098 86.5044 233.952 84.6145 234.177L84.614 234.169ZM76.1551 229.314C76.1551 229.314 76.1957 229.287 76.2121 229.278C76.2121 229.278 76.171 229.297 76.1551 229.314ZM83.5544 234.342C81.3332 234.829 79.0938 235.292 76.8832 235.821C76.2516 235.972 75.4693 236.299 75.603 237.084C75.746 237.885 76.5299 237.751 77.162 237.769C77.1615 237.76 77.169 237.743 77.177 237.734C78.7736 235.604 82.7976 238.046 83.5544 234.342ZM84.5884 234.162C84.5681 234.096 84.5226 234.031 84.452 233.967C84.5142 234.031 84.5597 234.096 84.58 234.162L84.5884 234.162ZM134.572 184.373C131.657 185.587 128.231 186.365 128.96 190.808C132.931 190.322 132.959 186.681 134.572 184.373ZM191.326 182.839C192.304 178.711 189.225 177.289 187.007 174.146C186.197 179.065 189.354 180.382 191.326 182.839ZM146.45 209.677C143.836 212.45 141.878 215.4 143.726 220.483C144.814 216.181 145.628 212.929 146.45 209.677ZM180.514 60.5136C180.514 60.5136 180.522 60.5131 180.53 60.5127L180.514 60.5136ZM174.537 55.1749C174.65 59.1025 177.342 60.048 180.462 60.4994C182.212 54.5369 175.37 58.2309 174.537 55.1749ZM180.434 60.6019L180.505 60.514C180.505 60.514 180.472 60.5158 180.455 60.5082C180.448 60.5423 180.441 60.5679 180.426 60.6108L180.434 60.6019ZM-45.5104 200.667L-45.6142 200.774C-45.6142 200.774 -45.5471 200.77 -45.514 200.76C-45.5157 200.727 -45.517 200.701 -45.5188 200.668L-45.5104 200.667ZM-47.7987 203.247C-49.3682 204.609 -46.4144 205.095 -47.2547 206.402C-47.5432 206.839 -46.8927 207.369 -46.2531 207.369C-45.622 207.37 -44.9916 206.873 -45.1426 206.401C-46.067 203.535 -42.8011 202.589 -42.4178 200.269C-43.4858 200.443 -44.5043 200.598 -45.5056 200.76C-45.3442 202.394 -46.9453 202.511 -47.7987 203.247ZM-45.4508 211.277C-47.2258 213.215 -44.9586 214.89 -44.3494 216.88L-44.341 216.879C-43.2613 215.164 -42.1731 213.447 -41.1014 211.74C-42.6536 210.701 -44.2413 209.95 -45.4508 211.277ZM165.399 167.419C165.101 166.719 164.491 166.153 163.795 166.509C162.549 167.148 163.072 168.451 163.034 169.506C162.998 170.898 163.878 172.267 162.641 173.73C164.985 173.497 164.2 171.357 165.6 170.618C167.255 169.756 165.85 168.474 165.399 167.419ZM162.641 173.73C162.641 173.73 162.641 173.73 162.633 173.73L162.641 173.73ZM-22.481 88.394C-22.3034 88.25 -22.4896 87.2658 -22.7921 86.9532C-23.2986 86.4406 -23.8198 86.6111 -24.5261 87.103C-26.3526 88.378 -26.8437 90.4084 -27.8121 92.1606C-24.5011 93.2 -24.1856 89.7468 -22.481 88.394ZM-11.3613 277.128C-11.3758 277.171 -11.4076 277.206 -11.4218 277.257C-11.4218 277.257 -11.4218 277.257 -11.4302 277.258L-11.4218 277.257C-11.3719 277.246 -11.3136 277.235 -11.2637 277.224C-11.2738 277.191 -11.284 277.157 -11.2941 277.124C-11.3193 277.126 -11.3361 277.127 -11.3613 277.128ZM-5.71935 269.336C-8.18723 270.897 -10.5672 272.529 -12.6355 274.491C-14.5434 276.301 -14.1469 277.442 -11.3613 277.128C-10.1417 274.065 -7.17207 272.284 -5.71935 269.336ZM152.141 191.581C148.073 193.588 149.016 197.455 148.657 200.894C150.754 198.19 149.451 194.19 152.141 191.581ZM96.0418 238.995C92.8271 240.275 89.2494 241.372 90.8156 246.369C90.8414 242.527 94.4898 241.653 96.0418 238.995ZM-42.9141 233.187C-42.9608 232.297 -43.3206 231.693 -44.1594 231.905C-45.8785 232.34 -47.0698 233.372 -47.1978 235.265C-47.2492 236.051 -46.7776 236.7 -46.0033 236.542C-44.1884 236.169 -43.4757 234.674 -42.9141 233.187ZM121.345 257.463C121.543 254.159 121.781 251.485 118.405 250.331C118.8 252.719 118.535 255.386 121.345 257.463ZM157.044 174.663C156.675 177.091 153.442 178.988 157.119 180.757C159.086 178.944 158.753 177.092 157.044 174.663ZM145.89 115.494C144.782 113.295 142.792 115.151 141.115 114.936C142.286 115.776 141.536 118.645 143.871 117.757C144.754 117.424 146.068 115.847 145.89 115.494ZM106.95 296.997C106.373 300.438 104.972 303.746 105.441 307.226C105.891 307.623 106.047 307.556 106.162 307.171C107.14 303.843 107.391 300.452 106.95 296.997ZM-23.5128 148.184C-26.6933 148.511 -29.8827 148.83 -33.0632 149.157C-33.0385 149.467 -33.005 149.785 -32.972 150.095L-23.4758 148.89L-23.5128 148.184ZM79.0312 191.066C80.1667 191.217 81.4148 191.91 82.2612 190.56C82.339 190.438 81.6775 189.858 81.3551 189.487L81.514 189.79C81.514 189.79 81.3357 189.598 81.3352 189.589C80.4074 188.745 79.2996 189.283 78.275 189.16C77.7015 190.1 77.591 190.88 79.0312 191.066ZM78.2984 189.125C78.2984 189.125 78.2829 189.151 78.2666 189.16C78.2661 189.152 78.282 189.134 78.29 189.125L78.2984 189.125ZM78.0634 189.137L78.1248 189.345C78.172 189.283 78.2193 189.222 78.2666 189.16C78.199 189.155 78.1314 189.151 78.0718 189.137L78.0634 189.137ZM171.587 59.4147C171.393 59.2564 171.209 59.106 171.015 58.9477C170.946 59.0608 170.796 59.254 170.822 59.2779C170.974 59.4384 171.166 59.5715 171.358 59.6963C171.375 59.7038 171.508 59.5115 171.587 59.4147Z" fill="url(#paint0_linear_2539_409)"/>
  <defs>
    <linearGradient id="paint0_linear_2539_409" x1="-17.8636" y1="9.95007" x2="90.8929" y2="327.154" gradientUnits="userSpaceOnUse">
      <stop stop-color="#B38879"/>
      <stop offset="1" stop-color="#61453B"/>
    </linearGradient>
  </defs>
</svg>