<svg preserveAspectRatio="none" width="288" height="68" viewBox="0 0 288 68" fill="none" xmlns="http://www.w3.org/2000/svg">
<path d="M286.478 20.7429C286.441 25.9135 286.403 31.157 287.006 36.3222L286.753 55.8973C286.333 56.406 286.176 56.9927 286.14 57.538C286.105 58.0653 286.181 58.6323 286.241 59.0757C286.246 59.1121 286.25 59.1476 286.255 59.1822C286.226 59.4788 286.202 59.7701 286.178 60.0539C286.102 60.9827 286.031 61.8317 285.828 62.5278C285.697 62.9769 285.548 63.2121 285.423 63.3238C285.342 63.3965 285.21 63.4784 284.875 63.4347L284.875 63.4347C282.808 63.166 280.847 63.6164 279.064 64.0691C278.904 64.1096 278.746 64.1501 278.589 64.1902C276.94 64.6124 275.445 64.9952 273.915 64.9734C263.241 64.8242 252.564 64.8505 241.896 64.8768C238.3 64.8857 234.706 64.8946 231.114 64.8967C230.712 64.8967 230.305 64.8837 229.882 64.8691L229.776 64.8654C229.39 64.8519 228.988 64.8379 228.587 64.834C227.711 64.8253 226.782 64.8629 225.849 65.0714C224.383 65.398 221.277 65.6706 216.844 65.8813C212.444 66.0905 206.819 66.236 200.372 66.3276C187.48 66.5107 171.33 66.4781 155.179 66.3109C122.836 65.9761 90.6158 65.1029 84.4967 64.3544C74.4033 63.1198 64.4214 63.9763 54.5663 64.8219C51.727 65.0655 48.8983 65.3083 46.0805 65.4998C46.0804 65.4998 46.0804 65.4998 46.0804 65.4998L45.9688 65.5074C38.3633 66.024 30.8554 66.5339 23.4218 65.8063C22.7283 65.7383 22.0279 65.6571 21.3212 65.5751C17.5471 65.1374 13.5931 64.6789 9.54773 66.1067L9.88054 67.0496L9.54768 66.1067C7.83621 66.7108 6.52874 66.9994 5.52085 67C4.55118 67.0006 3.90303 66.7371 3.40585 66.2473C2.87353 65.7229 2.41227 64.839 2.05217 63.403C1.69982 61.998 1.46788 60.1634 1.31469 57.8227C1.38424 57.3126 1.3253 56.8063 1.10492 56.3408C1.52075 47.7738 1.6407 39.1855 1.00052 30.5914L1.3443 5.82493C2.79648 4.8133 4.31346 4.71555 6.03198 4.83648C6.44794 4.86576 6.86472 4.90686 7.29771 4.94956C7.35498 4.95521 7.41254 4.96088 7.47041 4.96656C7.95936 5.01455 8.46746 5.06244 8.97892 5.08967C10.002 5.14412 11.0863 5.11945 12.1817 4.83206L12.1819 4.83201C22.2102 2.19872 32.3985 1.30644 42.5778 1.09932L42.5575 0.0995292L42.5779 1.09932C55.0274 0.845659 67.4862 1.06784 79.9639 1.88184L79.9896 1.88351L80.0153 1.88387C144.214 2.76541 183.774 2.5603 210.671 2.42084L212.896 2.40933C239.84 2.27061 253.69 2.23668 267.52 3.55049L267.615 2.55497L267.52 3.55051C269.387 3.72749 271.177 3.27893 272.791 2.86474L272.908 2.83482C274.531 2.4181 275.988 2.04401 277.476 2.10684C277.631 2.1134 277.783 2.11977 277.931 2.12601C279.938 2.21029 281.375 2.27068 282.472 2.46353C283.614 2.66447 284.209 2.98221 284.617 3.4799C285.066 4.02595 285.412 4.93272 285.701 6.60224C285.985 8.24821 286.188 10.4654 286.463 13.518C286.512 15.8997 286.495 18.3132 286.478 20.7429Z" stroke="#DA2128" stroke-width="2"/>
</svg>
