<svg preserveAspectRatio="none" width="170" height="57" viewBox="0 0 170 57" fill="none" xmlns="http://www.w3.org/2000/svg">
<path id="Vector" d="M167.862 53.0163L167.861 53.0163C166.306 52.7752 164.847 53.1823 163.598 53.5604C163.489 53.5934 163.381 53.6262 163.275 53.6585C162.1 54.0167 161.111 54.3184 160.103 54.3013L160.103 54.3013C151.72 54.1615 120.695 54.2054 104.872 54.2278C101.756 54.2322 99.2292 54.2358 97.5814 54.2369C97.3086 54.2369 97.0303 54.2264 96.7322 54.2141L96.6569 54.211C96.3864 54.1998 96.0985 54.1878 95.8103 54.1844C95.1786 54.1769 94.4835 54.2086 93.7762 54.3971C85.9255 56.4828 78.0257 55.3046 69.9958 54.107C69.2755 53.9996 68.5542 53.892 67.8318 53.7866L67.6874 54.7762L67.8318 53.7866C63.203 53.1114 57.2367 53.1771 51.3589 53.4933C46.9897 53.7284 42.6216 54.1051 38.8438 54.431C37.5327 54.5441 36.2927 54.651 35.1485 54.7438C29.7822 55.1785 21.7162 55.6101 16.5087 55.0022L167.862 53.0163ZM167.862 53.0163C167.891 53.0208 167.91 53.0217 167.923 53.0215C167.923 53.0214 167.923 53.0213 167.923 53.0212C167.976 52.9646 168.078 52.7946 168.172 52.4102C168.314 51.8287 168.364 51.1188 168.418 50.3408C168.434 50.1025 168.451 49.8579 168.471 49.6086C168.468 49.5798 168.465 49.5502 168.462 49.5198C168.42 49.1481 168.366 48.6725 168.391 48.2304C168.415 47.7947 168.517 47.2964 168.822 46.8441L168.909 38.7862L168.999 30.4465C168.576 26.1168 168.602 21.7214 168.628 17.3872C168.64 15.3507 168.653 13.3277 168.618 11.3314C168.424 8.77244 168.282 6.91419 168.082 5.53487C167.878 4.12733 167.634 3.38319 167.337 2.95206C167.093 2.59623 166.754 2.37086 166.026 2.21815C165.288 2.06332 164.31 2.01421 162.878 1.94233C162.78 1.93742 162.68 1.93242 162.578 1.92726C161.605 1.87828 160.64 2.17344 159.467 2.53265L159.424 2.54562C158.302 2.88909 156.965 3.29467 155.556 3.13533L155.556 3.13531C145.867 2.03762 128.059 2.06494 110.152 2.18134C108.586 2.19151 107.02 2.20237 105.458 2.21319C89.2186 2.32575 73.5047 2.43466 64.5553 1.73795C55.8081 1.05735 41.4757 0.870594 32.73 1.08313C25.5595 1.25714 15.6617 2.00792 8.68195 4.1939L8.68172 4.19397C7.84664 4.45529 7.02864 4.47451 6.28453 4.42727C5.91314 4.40369 5.54646 4.36237 5.20273 4.32213C5.16185 4.31734 5.12134 4.31258 5.08117 4.30786C4.77602 4.27197 4.49022 4.23837 4.20511 4.21444C3.08254 4.12021 2.15013 4.19046 1.24171 4.91556L1.00049 25.6428C1.45036 32.8459 1.36612 40.044 1.07396 47.2243C1.23099 47.6241 1.26939 48.0482 1.22129 48.4691C1.32897 50.4314 1.49198 51.9685 1.7393 53.1448C1.99395 54.356 2.31661 55.0739 2.66208 55.4798C2.95982 55.8297 3.3163 56.0004 3.87991 56C4.50585 55.9996 5.36582 55.7829 6.55616 55.2817L6.55622 55.2817M167.862 53.0163L6.55622 55.2817M6.55622 55.2817C9.50799 54.0391 12.4138 54.4432 15.0654 54.8119M6.55622 55.2817L15.0654 54.8119M15.0654 54.8119C15.5556 54.8801 16.0371 54.947 16.5086 55.0022L15.0654 54.8119ZM167.938 53.0202C167.938 53.0201 167.937 53.0202 167.936 53.0206L167.938 53.0202Z" stroke="#DA2128" stroke-width="2"/>
</svg>
