<svg width="186" height="60" viewBox="0 0 186 60" fill="none" xmlns="http://www.w3.org/2000/svg">
<path id="Vector" d="M186 31.9919C185.931 37.8896 185.862 43.7884 185.793 49.6861C185.118 50.3063 185.297 51.2699 185.404 52.2057C185.212 54.3164 185.259 57.1151 183.395 56.8468C180.428 56.4208 177.669 58.2579 174.73 58.2118C163.337 58.0358 151.943 58.1366 140.548 58.1442C139.203 58.1442 137.833 57.9521 136.515 58.2772C126.514 60.7378 87.087 58.9951 77.1976 57.6591C66.9108 56.2695 47.0163 57.9124 36.8682 58.6743C30.774 59.1314 24.6792 59.596 18.6341 58.9425C15.006 58.5498 11.5165 57.7493 7.89365 59.1614C2.30621 61.3398 0.74088 59.4984 0.247402 50.9802C0.313066 50.5746 0.255361 50.2205 0.0736237 49.9211C0.414548 42.2839 0.516692 34.6488 0 27.0192C0.093522 19.5784 0.187044 12.1376 0.280566 4.69567C3.24873 2.03763 6.48154 4.29326 9.52929 3.41011C17.6252 1.06219 25.834 0.27132 33.9995 0.087822C43.9659 -0.136456 63.7318 0.0599213 73.7253 0.779964C125.273 2.37887 147.513 -0.0742149 169.709 2.25439C172.373 2.53339 174.905 0.850784 177.621 0.977409C184.68 1.30792 184.684 1.10189 185.565 11.8789C185.692 18.5847 185.288 25.3194 185.999 31.9919H186Z" fill="#DA2128"/>
</svg>
