<svg preserveAspectRatio="none" width="256" height="68" viewBox="0 0 256 68" fill="none" xmlns="http://www.w3.org/2000/svg">
<path id="Vector" d="M256 36.2575C255.88 42.9415 255.759 49.6268 255.639 56.3109C254.463 57.0138 254.774 58.1059 254.962 59.1664C254.626 61.5586 254.708 64.7304 251.458 64.4264C246.286 63.9435 241.475 66.0256 236.353 65.9733C216.49 65.7739 196.626 65.8882 176.761 65.8967C174.415 65.8967 172.027 65.679 169.729 66.0475C152.294 68.8362 134.758 66.8611 117.517 65.347C99.5836 63.7721 81.9669 65.634 64.2749 66.4975C53.6505 67.0156 43.0249 67.5422 32.4861 66.8015C26.1609 66.3564 20.0775 65.4492 13.7616 67.0496C4.02058 69.5185 1.29163 67.4315 0.431313 57.7776C0.54579 57.3179 0.445189 56.9165 0.128353 56.5772C0.72271 47.9217 0.900786 39.2687 0 30.6217C0.163043 22.1888 0.326087 13.7559 0.48913 5.32176C5.66373 2.30931 11.2997 4.8657 16.6131 3.86479C30.7273 1.20381 45.0381 0.307487 59.2738 0.0995255C76.6489 -0.154655 94.0413 0.0679092 111.464 0.883957C150.131 2.69605 188.904 -0.0841141 227.598 2.55497C232.243 2.87117 236.658 0.964218 241.392 1.10773C253.699 1.48231 253.706 1.2488 255.241 13.4628C255.463 21.0626 254.759 28.6953 255.998 36.2575H256Z" fill="#FCB116"/>
</svg>
