<svg xmlns="http://www.w3.org/2000/svg" width="288" height="68" viewBox="0 0 288 68" fill="none">
  <path d="M287.006 36.3222L286.753 55.8973C286.333 56.406 286.176 56.9927 286.14 57.538C286.105 58.0653 286.181 58.6323 286.241 59.0757C286.246 59.1121 286.25 59.1476 286.255 59.1822C286.226 59.4788 286.202 59.7701 286.178 60.0539C286.102 60.9827 286.031 61.8317 285.828 62.5278C285.697 62.9769 285.548 63.2121 285.423 63.3238C285.342 63.3965 285.21 63.4784 284.875 63.4347L284.875 63.4347C282.808 63.166 280.847 63.6164 279.064 64.0691C278.904 64.1096 278.746 64.1501 278.589 64.1902C276.94 64.6124 275.445 64.9952 273.915 64.9734L273.914 64.9734C263.241 64.8241 252.564 64.8505 241.896 64.8768C238.301 64.8857 234.707 64.8946 231.115 64.8967C230.713 64.8967 230.306 64.8837 229.882 64.8691L229.775 64.8654C229.389 64.8519 228.988 64.8379 228.587 64.834C227.711 64.8253 226.782 64.8629 225.849 65.0714L287.006 36.3222ZM287.006 36.3222C286.403 31.157 286.441 25.9135 286.478 20.7429C286.495 18.3132 286.512 15.8997 286.463 13.518C286.188 10.4654 285.985 8.24821 285.701 6.60223C285.412 4.93272 285.066 4.02594 284.617 3.4799C284.209 2.9822 283.614 2.66447 282.472 2.46352C281.375 2.27068 279.938 2.21029 277.932 2.12601C277.783 2.11977 277.631 2.1134 277.476 2.10683C275.988 2.04401 274.531 2.41809 272.908 2.83482L272.791 2.86474C271.177 3.27893 269.387 3.72748 267.52 3.55051L267.615 2.55497L267.52 3.55049C253.69 2.23667 239.84 2.27061 212.896 2.40933L210.671 2.42085C183.775 2.5603 144.214 2.76541 80.0153 1.88387L79.9896 1.88351L79.9639 1.88184C67.4862 1.06783 55.0274 0.845657 42.5779 1.09932C32.3985 1.30643 22.2102 2.19872 12.1819 4.832L12.1817 4.83205C11.0863 5.11945 10.002 5.14412 8.97892 5.08966C8.46746 5.06244 7.95936 5.01455 7.47041 4.96656C7.41248 4.96087 7.35487 4.95519 7.29754 4.94954C6.86461 4.90685 6.44789 4.86575 6.03198 4.83648C4.31346 4.71555 2.79648 4.8133 1.3443 5.82492L1.00052 30.5914C1.6407 39.1855 1.52075 47.7738 1.10492 56.3407C1.3253 56.8063 1.38424 57.3126 1.31469 57.8227C1.46788 60.1634 1.69982 61.9979 2.05217 63.403C2.41227 64.839 2.87353 65.7228 3.40585 66.2473C3.90303 66.7371 4.55118 67.0006 5.52085 67C6.52874 66.9994 7.83621 66.7108 9.54768 66.1067L9.54773 66.1066C13.5931 64.6789 17.5471 65.1374 21.3212 65.5751C22.028 65.6571 22.7284 65.7383 23.422 65.8063C30.8555 66.5339 38.3633 66.024 45.9687 65.5074L46.0804 65.4998C48.8983 65.3082 51.7271 65.0655 54.5663 64.8219C64.4215 63.9763 74.4033 63.1198 84.4967 64.3544C90.6158 65.1029 122.836 65.9761 155.179 66.3109C171.33 66.478 187.48 66.5107 200.372 66.3276C206.819 66.236 212.444 66.0905 216.844 65.8813C221.276 65.6706 224.382 65.3981 225.848 65.0716L287.006 36.3222Z" stroke="#DA2128" stroke-width="2"/>
</svg>