<svg preserveAspectRatio="none"  width="570" height="60" viewBox="0 0 570 60" fill="none" xmlns="http://www.w3.org/2000/svg">
<path opacity="0.5" d="M24.1271 58.6654L24.1902 59.1614L24.1271 58.6654C33.496 57.4737 42.5795 57.8505 51.8203 58.2338C53.5808 58.3069 55.3471 58.3801 57.1221 58.4428C75.5092 59.0915 94.0491 58.6376 112.606 58.1834L112.971 58.1744C114.771 58.1303 116.672 58.0832 118.661 58.034C151.025 57.2326 206.876 55.8495 236.595 57.1596C266.902 58.4956 387.699 60.2367 418.312 57.7788C421.283 57.5397 424.348 57.5781 427.381 57.6162C428.498 57.6302 429.611 57.6442 430.712 57.6442C439.517 57.6423 448.322 57.6344 457.128 57.6266C483.241 57.6034 509.355 57.5802 535.466 57.7118C539.532 57.7326 543.487 57.367 547.467 56.999C547.865 56.9622 548.263 56.9254 548.661 56.8889C553.038 56.4886 557.455 56.1326 562.039 56.3473L562.016 56.8468L562.039 56.3473C564.828 56.4783 566.022 55.8532 566.628 55.104C566.944 54.7135 567.136 54.247 567.286 53.7216C567.362 53.4588 567.424 53.1897 567.488 52.9106L567.497 52.8703C567.545 52.6594 567.595 52.442 567.651 52.2277C567.646 52.2134 567.64 52.199 567.635 52.1844C567.572 52.0145 567.501 51.8202 567.45 51.64C567.376 51.3776 567.319 51.0638 567.38 50.7366C567.499 50.0947 568.005 49.6424 568.879 49.3212L569.183 40.8211L569.497 32.0733C568.405 28.6884 568.173 25.3006 568.161 21.9496C568.157 20.7349 568.182 19.5339 568.206 18.3398C568.249 16.2024 568.292 14.0871 568.17 11.9549C567.497 9.2655 567.003 7.32876 566.315 5.89138C565.641 4.48254 564.791 3.58242 563.393 2.96852C561.958 2.33805 559.92 1.99883 556.841 1.80368C554.001 1.62367 550.33 1.56824 545.509 1.49545L544.314 1.47734C540.33 1.41671 536.472 1.77399 532.606 2.13203L532.186 2.17091C528.187 2.54061 524.176 2.89482 520.058 2.75409C484.255 1.52837 448.423 1.62775 399.467 1.76353C355.423 1.88568 300.755 2.03731 225.927 1.27998L225.921 1.27982C195.302 0.55994 134.735 0.363548 104.196 0.587799C79.1795 0.771248 54.0397 1.56187 29.2498 3.90788L29.2497 3.90788C25.5747 4.25539 21.8057 4.12126 18.0704 3.98833C17.019 3.95092 15.9703 3.9136 14.9271 3.88714C10.2769 3.76921 5.71033 3.86444 1.34548 5.07714L0.501974 26.9775C2.06536 34.5578 1.77555 42.1289 0.76429 49.6693C0.95652 49.8103 1.1193 49.9798 1.22307 50.1865C1.36399 50.4672 1.36873 50.7602 1.27604 51.0344C1.6479 53.0599 2.20745 54.6477 3.05994 55.8729C3.92442 57.1153 5.11168 58.0158 6.78754 58.6109C10.1887 59.8184 15.554 59.7561 24.1271 58.6654Z" stroke="black"/>
<path opacity="0.8" d="M535.611 22V24.8M541.389 22V24.8M532 27.6H545M533.444 23.4H543.556C544.353 23.4 545 24.0268 545 24.8V34.6C545 35.3732 544.353 36 543.556 36H533.444C532.647 36 532 35.3732 532 34.6V24.8C532 24.0268 532.647 23.4 533.444 23.4Z" stroke="#7E7D7B" stroke-width="1.5" stroke-linecap="round" stroke-linejoin="round"/>
<path opacity="0.5" d="M509.5 3C509.5 12.3333 510.5 31.8 510.5 35C510.5 38.2 510.833 51.3333 510.5 57.5" stroke="black"/>
</svg>
