<svg width="1920" height="115" viewBox="0 0 1920 115" fill="none" xmlns="http://www.w3.org/2000/svg">
<path opacity="0.2" d="M1933 64.9477C1932.27 74.2858 1931.54 113.625 1930.81 122.963C1923.66 123.946 1925.55 125.471 1926.69 126.953C1924.65 130.295 1931.75 138.391 1912 137.966C1880.58 137.292 1846.12 151.369 1815 151.296C1694.33 151.017 1572.29 136.344 1451.6 136.355C1437.35 136.355 1422.84 136.051 1408.88 136.566C1302.96 140.462 885.374 137.703 780.63 135.588C671.679 133.387 460.969 135.988 353.486 137.195C288.94 137.919 224.387 138.654 160.361 137.62C121.934 136.998 84.9755 135.73 46.6048 137.966C-12.574 141.415 -29.153 138.5 -34.3797 125.013C-33.6842 124.37 -34.2954 123.81 -36.2202 123.336C-32.6094 111.243 -31.5275 69.1546 -37 57.0743C-36.0095 45.293 -35.0189 33.5117 -34.0284 21.7287C-2.59143 17.5202 38.2483 3.89833 70.5283 2.5C156.276 -1.21754 283.528 2.73534 353.486 2.5C459.044 2.1449 638.008 14.3888 743.855 15.5289C1289.82 18.0605 1533.45 -1.18697 1768.53 2.5C1796.75 2.94176 1840.77 2.29951 1869.53 2.5C1944.3 3.02332 1919.06 16.0386 1928.39 33.1022C1929.74 43.7197 1925.46 54.383 1932.99 64.9477H1933Z" fill="#8E5929"/>
</svg>
