<svg preserveAspectRatio="none" xmlns="http://www.w3.org/2000/svg" width="670" height="60" viewBox="0 0 670 60" fill="none">
  <path opacity="0.5" d="M669.128 40.8179L669.496 32.0849C668.213 28.6943 667.94 25.301 667.926 21.9499C667.922 20.7307 667.95 19.5277 667.979 18.3328C668.03 16.2005 668.08 14.094 667.938 11.9673C667.146 9.28045 666.569 7.35205 665.763 5.92068C664.975 4.51971 663.972 3.60531 662.296 2.9791C660.583 2.33942 658.165 1.99927 654.543 1.80396C651.2 1.62373 646.881 1.56825 641.217 1.49549L639.811 1.47736C635.118 1.41661 630.576 1.77451 626.033 2.13239L625.537 2.17149C620.836 2.54126 616.131 2.89456 611.301 2.75417C569.216 1.5284 527.093 1.62777 469.544 1.76353C417.772 1.88567 353.514 2.03725 265.565 1.27997L265.56 1.27986C229.567 0.559933 158.373 0.363544 122.475 0.587803C93.067 0.771263 63.5117 1.56196 34.3661 3.90849L34.366 3.90849C30.0578 4.25507 25.6417 4.1214 21.2527 3.98856C20.0153 3.95111 18.7801 3.91372 17.55 3.88718C12.0648 3.76883 6.66121 3.86431 1.49317 5.0929L0.502717 26.9705C2.33807 34.5488 1.99971 42.1165 0.814936 49.6479C1.03328 49.7841 1.22095 49.9498 1.34302 50.1567C1.51468 50.4477 1.52197 50.7565 1.41506 51.0399C1.85038 53.0473 2.504 54.6224 3.50139 55.8419C4.52004 57.0874 5.92855 58 7.92627 58.6034C11.9631 59.8228 18.3065 59.7547 28.3803 58.6643L28.4341 59.1614L28.3803 58.6643C39.3782 57.4742 50.0397 57.8504 60.9016 58.2337C62.9718 58.3067 65.0493 58.38 67.1378 58.4428C88.7556 59.0915 110.552 58.6376 132.363 58.1834L132.794 58.1744C134.91 58.1303 137.144 58.0832 139.481 58.034C177.524 57.2325 243.169 55.8496 278.096 57.1595C313.72 58.4955 455.718 60.237 491.713 57.7784C495.197 57.5398 498.789 57.5781 502.351 57.6161C503.666 57.6302 504.976 57.6442 506.276 57.6442C516.626 57.6423 526.976 57.6344 537.326 57.6266C568.02 57.6034 598.715 57.5802 629.407 57.7118C634.195 57.7326 638.851 57.3664 643.528 56.9984C643.996 56.9616 644.464 56.9248 644.933 56.8883C650.077 56.488 655.259 56.1329 660.635 56.3472L660.615 56.8468L660.635 56.3472C663.946 56.4795 665.398 55.8453 666.131 55.0739C666.503 54.6822 666.727 54.2186 666.902 53.6998C666.989 53.4388 667.062 53.1715 667.137 52.8922L667.148 52.8514C667.203 52.6489 667.259 52.4392 667.322 52.2317C667.319 52.2257 667.317 52.2197 667.314 52.2136C667.24 52.0429 667.154 51.8445 667.094 51.6617C667.006 51.396 666.934 51.0672 667.01 50.7213C667.155 50.0526 667.759 49.6124 668.77 49.3024L669.128 40.8179Z" stroke="black"/>
</svg>