<svg preserveAspectRatio="none" xmlns="http://www.w3.org/2000/svg"  viewBox="0 0 345 60" fill="none">
  <path d="M198.13 58.8919C221.037 59.1872 243.916 59.006 253.147 57.7816C254.971 57.539 256.864 57.5782 258.707 57.6165C259.378 57.6304 260.042 57.6442 260.694 57.6442C266.023 57.6423 271.352 57.6344 276.681 57.6266C292.487 57.6034 308.295 57.5801 324.101 57.7118L324.096 58.2118L324.101 57.7118C326.535 57.7324 328.903 57.3707 331.317 57.0021C331.556 56.9655 331.797 56.9288 332.037 56.8924C334.686 56.4922 337.392 56.1304 340.206 56.3483L340.168 56.8468L340.206 56.3483C341.006 56.4103 341.547 56.2909 341.924 56.0903C342.295 55.8925 342.553 55.5909 342.745 55.1986C342.942 54.7976 343.062 54.3136 343.156 53.7738C343.202 53.5058 343.241 53.2323 343.279 52.9535L343.284 52.9159C343.316 52.6845 343.349 52.4488 343.386 52.2188C343.379 52.1859 343.371 52.1522 343.364 52.1177C343.275 51.7264 343.163 51.232 343.215 50.7719C343.247 50.4805 343.344 50.1861 343.545 49.913C343.692 49.7138 343.885 49.5402 344.122 49.39L344.308 40.8281L344.499 32.0465C343.838 28.6771 343.697 25.3018 343.69 21.9489C343.687 20.7443 343.702 19.5477 343.716 18.3553C343.743 16.206 343.769 14.0702 343.694 11.9253C343.286 9.23234 342.985 7.27176 342.562 5.81463C342.142 4.36425 341.623 3.49115 340.829 2.91542C340.019 2.32719 338.85 1.99538 337.002 1.80196C335.297 1.62333 333.087 1.5682 330.162 1.4952C329.928 1.48935 329.689 1.48339 329.445 1.47725C327.062 1.41733 324.752 1.77077 322.405 2.12991L322.16 2.1673C319.743 2.5365 317.284 2.89644 314.754 2.75359L314.782 2.25438L314.754 2.75359C293.089 1.52814 271.416 1.62759 241.798 1.76349C215.143 1.8858 182.052 2.03763 136.74 1.28001L136.729 1.27958C118.204 0.55999 81.5512 0.36356 63.0697 0.587776C47.9359 0.77113 32.7364 1.56132 17.7525 3.9041L17.7525 3.90411C15.4913 4.25737 13.1646 4.12034 10.8987 3.98689C10.2673 3.94971 9.64071 3.91281 9.02156 3.88686C6.24534 3.77053 3.56702 3.86585 1.01304 5.01746L0.500728 26.9938C1.45039 34.5832 1.27134 42.1683 0.653508 49.7355C0.785898 49.8913 0.888103 50.0676 0.948218 50.2654C1.02387 50.5145 1.02411 50.769 0.965969 51.0183C1.42666 55.2139 2.3672 57.5405 4.25998 58.6508C5.22407 59.2163 6.48917 59.5006 8.18174 59.5C9.87524 59.4994 11.9611 59.2139 14.5386 58.6721L14.5386 58.6721C20.2556 57.4707 25.8037 57.8513 31.3968 58.2351C32.4599 58.308 33.5246 58.3811 34.5924 58.4434C45.7057 59.0911 56.914 58.6378 68.1508 58.1833L68.3644 58.1747C69.4557 58.1305 70.608 58.0834 71.8143 58.034C91.3973 57.2328 125.218 55.849 143.225 57.1604C152.381 57.8273 175.237 58.5969 198.13 58.8919Z" stroke="black"/>
</svg>