<svg width="410" height="110" viewBox="0 0 410 110" fill="none" xmlns="http://www.w3.org/2000/svg">
<path opacity="0.5" d="M409.272 65.8299C409.347 50.5155 409.423 35.1889 409.498 32.0546C408.713 28.6802 408.545 25.3012 408.537 21.9491C408.534 20.7417 408.552 19.5439 408.569 18.3512C408.6 16.2052 408.631 14.0753 408.543 11.934C408.058 9.24176 407.701 7.2888 407.201 5.83828C406.707 4.40325 406.094 3.52499 405.132 2.93748C404.141 2.33258 402.719 1.99709 400.514 1.80276C398.479 1.62349 395.847 1.56822 392.374 1.49532C392.095 1.48945 391.81 1.48347 391.519 1.47729C388.671 1.41705 385.912 1.77225 383.127 2.13087L382.831 2.16896C379.957 2.5384 377.052 2.89571 374.065 2.75383C348.315 1.52826 322.551 1.62767 287.346 1.76352C255.667 1.88576 216.343 2.03749 162.506 1.28001L162.497 1.2797C140.477 0.559975 96.9154 0.363556 74.9503 0.587791C56.961 0.771187 38.8887 1.56158 21.0707 3.90584L21.0054 3.41011L21.0706 3.90585C18.4035 4.25646 15.6633 4.12077 12.9732 3.98756C12.2201 3.95026 11.471 3.91317 10.7285 3.88699C7.41166 3.77005 4.18664 3.86521 1.10911 5.03976L0.501015 26.9895C0.788125 28.9681 0.985334 34.0124 1.11144 40.5452C1.23884 47.1452 1.29399 55.3071 1.29006 63.4675C1.28237 79.4302 1.04875 95.4359 0.683509 99.7118C0.834496 99.8632 0.955484 100.038 1.02861 100.241C1.12229 100.5 1.12357 100.766 1.05512 101.024C1.59973 105.183 2.70469 107.509 4.98324 108.634C6.15736 109.213 7.692 109.501 9.72329 109.5C11.7533 109.499 14.2455 109.212 17.3129 108.669L17.4 109.161L17.3129 108.669C24.0819 107.472 30.6479 107.851 37.2947 108.235C38.5595 108.307 39.8271 108.381 41.0996 108.443C54.3154 109.091 67.6427 108.638 80.9936 108.183L81.2516 108.175C82.5477 108.13 83.916 108.083 85.3484 108.034C108.624 107.233 148.808 105.849 170.197 107.16C181.084 107.827 208.25 108.597 235.457 108.892C262.675 109.187 289.879 109.006 300.864 107.78C303.018 107.539 305.247 107.578 307.433 107.616C308.233 107.63 309.028 107.644 309.811 107.644C316.143 107.642 322.477 107.634 328.81 107.627C347.593 107.603 366.379 107.58 385.162 107.712L385.158 108.212L385.162 107.712C388.069 107.732 390.898 107.369 393.763 107.001C394.049 106.964 394.335 106.927 394.621 106.891C397.769 106.491 400.967 106.131 404.29 106.348L404.257 106.847L404.29 106.348C405.264 106.411 405.941 106.29 406.419 106.075C406.888 105.865 407.198 105.552 407.422 105.167C407.652 104.771 407.794 104.294 407.904 103.758C407.959 103.492 408.004 103.22 408.05 102.941L408.057 102.902C408.094 102.677 408.132 102.447 408.175 102.221C408.167 102.193 408.16 102.164 408.152 102.135C408.107 101.966 408.057 101.779 408.022 101.604C407.97 101.348 407.934 101.058 407.973 100.762C408.014 100.454 408.135 100.153 408.373 99.8802C408.548 99.6816 408.773 99.5115 409.051 99.3652C409.125 95.7776 409.198 80.8137 409.272 65.8365V65.8299Z" stroke="black"/>
</svg>
