<svg preserveAspectRatio="none"  xmlns="http://www.w3.org/2000/svg" width="670" height="110" viewBox="0 0 670 110" fill="none">
  <g opacity="0.5">
    <mask id="path-1-inside-1_2550_4203" fill="white">
      <path d="M670 31.9919C669.752 37.8896 669.503 93.7884 669.255 99.6861C666.825 100.306 667.467 101.27 667.854 102.206C667.162 104.316 667.331 107.115 660.615 106.847C649.928 106.421 639.989 108.258 629.405 108.212C588.365 108.036 547.321 108.137 506.276 108.144C501.428 108.144 496.495 107.952 491.747 108.277C455.723 110.738 313.701 108.995 278.077 107.659C241.023 106.269 169.36 107.912 132.805 108.674C110.853 109.131 88.8982 109.596 67.1228 108.943C54.0538 108.55 41.4841 107.749 28.4341 109.161C8.30732 111.34 2.66876 109.498 0.89118 100.98C1.12771 100.575 0.91985 100.22 0.265204 99.9211C1.49326 92.2839 1.8612 34.6488 0 27.0192C0.33688 19.5784 0.67376 12.1376 1.01064 4.69567C11.7024 2.03763 23.3475 4.29327 34.3259 3.41011C63.4888 1.06219 93.0578 0.271317 122.471 0.087822C158.372 -0.136452 229.571 0.0599213 265.57 0.779968C451.252 2.37887 531.365 -0.0742111 611.316 2.25439C620.914 2.53339 630.036 0.850784 639.817 0.977409C665.246 1.30792 665.26 1.1019 668.433 11.8789C668.891 18.5847 667.436 25.3194 669.995 31.9919H670Z"/>
    </mask>
    <path d="M670 31.9919V30.9919H671.043L670.999 32.034L670 31.9919ZM669.255 99.6861L670.254 99.7282L670.222 100.471L669.502 100.655L669.255 99.6861ZM667.854 102.206L668.779 101.823L668.92 102.166L668.805 102.518L667.854 102.206ZM660.615 106.847L660.655 105.848L660.655 105.848L660.615 106.847ZM629.405 108.212L629.409 107.212L629.409 107.212L629.405 108.212ZM506.276 108.144L506.276 109.144H506.276V108.144ZM491.747 108.277L491.816 109.275L491.816 109.275L491.747 108.277ZM278.077 107.659L278.115 106.66L278.077 107.659ZM132.805 108.674L132.826 109.674L132.826 109.674L132.805 108.674ZM67.1228 108.943L67.0928 109.942L67.0928 109.942L67.1228 108.943ZM28.4341 109.161L28.3265 108.167L28.3265 108.167L28.4341 109.161ZM0.89118 100.98L-0.0877328 101.184L-0.16622 100.808L0.0273234 100.476L0.89118 100.98ZM0.265204 99.9211L-0.1507 100.83L-0.842966 100.514L-0.722113 99.7623L0.265204 99.9211ZM0 27.0192L-0.971511 27.2562L-1.00545 27.117L-0.998977 26.9739L0 27.0192ZM1.01064 4.69567L0.0116638 4.65045L0.0454 3.9052L0.769378 3.72521L1.01064 4.69567ZM34.3259 3.41011L34.4062 4.40688L34.4061 4.40689L34.3259 3.41011ZM122.471 0.087822L122.478 1.0878H122.478L122.471 0.087822ZM265.57 0.779968L265.561 1.77999L265.55 1.77977L265.57 0.779968ZM611.316 2.25439L611.287 3.25397H611.287L611.316 2.25439ZM639.817 0.977409L639.83 -0.0225067H639.83L639.817 0.977409ZM668.433 11.8789L669.392 11.5965L669.423 11.7015L669.43 11.8107L668.433 11.8789ZM669.995 31.9919V32.9919H669.308L669.062 32.3499L669.995 31.9919ZM670.999 32.034C670.876 34.9603 670.752 50.3805 670.627 65.847C670.503 81.2787 670.379 96.7568 670.254 99.7282L668.255 99.644C668.379 96.7176 668.503 81.2975 668.627 65.8309C668.751 50.3992 668.876 34.9212 669.001 31.9498L670.999 32.034ZM669.502 100.655C668.95 100.796 668.664 100.935 668.529 101.03C668.416 101.108 668.459 101.116 668.475 101.04C668.484 101.001 668.463 101.026 668.518 101.19C668.58 101.378 668.652 101.518 668.779 101.823L666.93 102.588C666.863 102.426 666.71 102.094 666.619 101.819C666.52 101.519 666.418 101.089 666.521 100.615C666.75 99.5609 667.764 99.0344 669.007 98.7171L669.502 100.655ZM668.805 102.518C668.728 102.75 668.662 102.996 668.586 103.282C668.512 103.557 668.428 103.867 668.323 104.178C668.113 104.805 667.8 105.496 667.219 106.107C666.033 107.354 664.027 107.984 660.575 107.846L660.655 105.848C663.92 105.978 665.186 105.342 665.769 104.73C666.071 104.411 666.266 104.023 666.428 103.541C666.51 103.296 666.579 103.043 666.654 102.762C666.727 102.492 666.808 102.189 666.904 101.894L668.805 102.518ZM660.575 107.846C655.297 107.636 650.192 107.984 645.049 108.384C639.921 108.783 634.743 109.235 629.4 109.212L629.409 107.212C634.651 107.235 639.735 106.791 644.894 106.39C650.038 105.99 655.247 105.632 660.655 105.848L660.575 107.846ZM629.401 109.212C588.364 109.036 547.324 109.137 506.276 109.144L506.276 107.144C547.317 107.137 588.366 107.036 629.409 107.212L629.401 109.212ZM506.276 109.144C501.375 109.144 496.518 108.953 491.816 109.275L491.679 107.28C496.472 106.951 501.482 107.144 506.276 107.144V109.144ZM491.816 109.275C455.732 111.739 313.663 109.994 278.04 108.658L278.115 106.66C313.738 107.996 455.713 109.736 491.679 107.28L491.816 109.275ZM278.04 108.658C241.023 107.27 169.398 108.912 132.826 109.674L132.784 107.674C169.321 106.913 241.023 105.269 278.115 106.66L278.04 108.658ZM132.826 109.674C110.878 110.131 88.898 110.596 67.0928 109.942L67.1528 107.943C88.8984 108.596 110.827 108.132 132.784 107.674L132.826 109.674ZM67.0928 109.942C53.9782 109.548 41.5035 108.753 28.5417 110.156L28.3265 108.167C41.4646 106.746 54.1293 107.552 67.1528 107.943L67.0928 109.942ZM28.5417 110.156C18.4992 111.243 11.8619 111.359 7.49254 110.039C5.26645 109.367 3.58217 108.31 2.34028 106.792C1.10913 105.286 0.375327 103.403 -0.0877328 101.184L1.87009 100.776C2.29582 102.816 2.93343 104.358 3.88842 105.525C4.83267 106.68 6.14925 107.544 8.07085 108.125C11.9969 109.311 18.2423 109.259 28.3265 108.167L28.5417 110.156ZM0.0273234 100.476C0.0229472 100.484 -0.0102092 100.545 -0.0140847 100.648C-0.0182512 100.76 0.0139504 100.856 0.0511188 100.919C0.0826191 100.972 0.104097 100.98 0.068909 100.953C0.0347205 100.927 -0.0332679 100.884 -0.1507 100.83L0.681107 99.0117C1.07126 99.1901 1.51315 99.4611 1.77365 99.9026C2.0922 100.443 2.02363 101.023 1.75504 101.484L0.0273234 100.476ZM-0.722113 99.7623C-0.428024 97.9334 -0.174838 92.9757 0.00394941 86.3541C0.181777 79.7681 0.28466 71.6182 0.291076 63.4665C0.297492 55.3142 0.207418 47.1675 -0.000173546 40.5864C-0.10399 37.2952 -0.236985 34.4027 -0.401328 32.1002C-0.56745 29.7727 -0.761486 28.1171 -0.971511 27.2562L0.971511 26.7822C1.22679 27.8286 1.42839 29.6432 1.5936 31.9578C1.76058 34.2973 1.8946 37.219 1.99883 40.5234C2.20734 47.1334 2.2975 55.3033 2.29108 63.4681C2.28465 71.6335 2.18161 79.8012 2.00322 86.4081C1.82579 92.9795 1.57246 98.0901 1.25252 100.08L-0.722113 99.7623ZM-0.998977 26.9739C-0.662096 19.5331 -0.325216 12.0923 0.0116638 4.65045L2.00962 4.74089C1.67274 12.1828 1.33586 19.6236 0.998977 27.0644L-0.998977 26.9739ZM0.769378 3.72521C6.25212 2.36217 11.949 2.26599 17.5823 2.38754C23.2567 2.50997 28.8239 2.84949 34.2458 2.41333L34.4061 4.40689C28.8495 4.85389 23.105 4.50716 17.5392 4.38707C11.9325 4.2661 6.46093 4.37113 1.2519 5.66613L0.769378 3.72521ZM34.2457 2.41334C63.443 0.0626373 93.0393 -0.728584 122.465 -0.912163L122.478 1.0878C93.0763 1.27122 63.5345 2.06174 34.4062 4.40688L34.2457 2.41334ZM122.465 -0.912163C158.37 -1.13647 229.579 -0.940117 265.59 -0.219833L265.55 1.77977C229.563 1.05997 158.373 0.863556 122.478 1.0878L122.465 -0.912163ZM265.578 -0.219994C451.211 1.37847 531.389 -1.07396 611.345 1.25481L611.287 3.25397C531.342 0.925537 451.294 3.37927 265.561 1.77993L265.578 -0.219994ZM611.345 1.25481C616.083 1.39254 620.712 1.04643 625.419 0.676125C630.112 0.306969 634.885 -0.086525 639.83 -0.0225067L639.804 1.97733C634.968 1.91471 630.289 2.29922 625.576 2.66996C620.878 3.03955 616.147 3.39526 611.287 3.25397L611.345 1.25481ZM639.83 -0.0225067C646.175 0.059967 650.971 0.109184 654.624 0.306137C658.259 0.502167 660.877 0.8479 662.821 1.57396C664.836 2.32695 666.112 3.48291 667.07 5.18509C667.983 6.80772 668.611 8.94262 669.392 11.5965L667.473 12.1614C666.668 9.42674 666.104 7.54601 665.327 6.16589C664.595 4.86533 663.684 4.03144 662.121 3.44749C660.486 2.83661 658.134 2.49831 654.516 2.30324C650.915 2.10908 646.173 2.0601 639.804 1.97733L639.83 -0.0225067ZM669.43 11.8107C669.662 15.1954 669.413 18.7031 669.426 21.9439C669.44 25.2528 669.713 28.4636 670.929 31.6338L669.062 32.3499C667.719 28.8477 667.44 25.3549 667.426 21.9519C667.413 18.4807 667.662 15.2683 667.435 11.9472L669.43 11.8107ZM669.995 30.9919H670V32.9919H669.995V30.9919Z" fill="black" mask="url(#path-1-inside-1_2550_4203)"/>
  </g>
</svg>