<svg xmlns="http://www.w3.org/2000/svg" width="97" height="60" viewBox="0 0 97 60" fill="none">
  <path d="M74.8261 29.9921C74.8378 34.1066 73.5152 38.1119 71.0603 41.3964C70.9896 41.4915 70.9011 41.5716 70.7998 41.6322C70.6985 41.6927 70.5863 41.7326 70.4698 41.7494C70.3532 41.7662 70.2345 41.7596 70.1204 41.7301C70.0064 41.7006 69.8992 41.6488 69.805 41.5774C69.7108 41.5061 69.6314 41.4168 69.5714 41.3145C69.5114 41.2122 69.472 41.099 69.4553 40.9814C69.4387 40.8637 69.4452 40.7439 69.4744 40.6287C69.5036 40.5136 69.555 40.4054 69.6256 40.3103C71.2453 38.1304 72.3286 35.5932 72.7862 32.9077C73.2439 30.2223 73.0628 27.4655 72.2579 24.8645C71.4531 22.2636 70.0474 19.893 68.1569 17.948C66.2663 16.003 63.945 14.5393 61.3841 13.6777C58.8233 12.816 56.0962 12.5809 53.4277 12.9918C50.7592 13.4028 48.2257 14.448 46.0358 16.0412C43.846 17.6345 42.0625 19.7303 40.8325 22.1558C39.6024 24.5813 38.961 27.2672 38.961 29.9921C38.961 30.2322 38.8665 30.4624 38.6983 30.6321C38.5302 30.8019 38.3021 30.8972 38.0643 30.8972C37.8265 30.8972 37.5985 30.8019 37.4303 30.6321C37.2622 30.4624 37.1677 30.2322 37.1677 29.9921C37.1669 27.8921 37.5131 25.8066 38.1921 23.8216C36.6007 23.5496 34.9706 23.6141 33.4052 24.0112C31.8398 24.4083 30.3732 25.1292 29.0982 26.1284C27.8232 27.1275 26.7677 28.383 25.9985 29.8155C25.2293 31.2479 24.7632 32.8259 24.6297 34.4497C24.4963 36.0734 24.6983 37.7074 25.2231 39.2483C25.7478 40.7891 26.5839 42.2031 27.6783 43.4007C28.7727 44.5983 30.1015 45.5534 31.5807 46.2055C33.0598 46.8577 34.657 47.1926 36.2711 47.1891H41.6508C41.8886 47.1891 42.1167 47.2844 42.2849 47.4542C42.453 47.6239 42.5475 47.8541 42.5475 48.0942C42.5475 48.3342 42.453 48.5645 42.2849 48.7342C42.1167 48.9039 41.8886 48.9993 41.6508 48.9993H36.2711C34.395 48.9986 32.5398 48.6018 30.8247 47.8343C29.1096 47.0667 27.5726 45.9455 26.3124 44.5426C25.0522 43.1397 24.0966 41.4861 23.5072 39.6882C22.9178 37.8903 22.7075 35.9878 22.8899 34.103C23.0722 32.2182 23.6432 30.3927 24.5661 28.7439C25.489 27.0951 26.7435 25.6595 28.2488 24.5292C29.7541 23.399 31.477 22.5991 33.3068 22.1811C35.1366 21.7631 37.0328 21.7361 38.8735 22.1019C40.6604 18.1578 43.7298 14.9492 47.5722 13.0087C51.4145 11.0682 55.7987 10.5125 59.9971 11.4339C64.1954 12.3553 67.9553 14.6983 70.6527 18.074C73.3501 21.4497 74.8227 25.6551 74.8261 29.9921ZM60.7423 40.213L55.1003 45.9084V29.9921C55.1003 29.7521 55.0058 29.5219 54.8377 29.3521C54.6695 29.1824 54.4414 29.087 54.2036 29.087C53.9658 29.087 53.7378 29.1824 53.5696 29.3521C53.4015 29.5219 53.307 29.7521 53.307 29.9921V45.9084L47.665 40.213C47.4967 40.0432 47.2685 39.9478 47.0306 39.9478C46.7927 39.9478 46.5645 40.0432 46.3962 40.213C46.228 40.3828 46.1335 40.6132 46.1335 40.8534C46.1335 41.0935 46.228 41.3239 46.3962 41.4937L53.5693 48.7345C53.6525 48.8187 53.7514 48.8855 53.8603 48.931C53.9691 48.9766 54.0858 49 54.2036 49C54.3215 49 54.4381 48.9766 54.547 48.931C54.6558 48.8855 54.7547 48.8187 54.838 48.7345L62.011 41.4937C62.1793 41.3239 62.2738 41.0935 62.2738 40.8534C62.2738 40.6132 62.1793 40.3828 62.011 40.213C61.8428 40.0432 61.6146 39.9478 61.3767 39.9478C61.1387 39.9478 60.9105 40.0432 60.7423 40.213Z" fill="#DA2128" stroke="#DA2128" stroke-width="2"/>
</svg>