<svg xmlns="http://www.w3.org/2000/svg" width="24" height="24" viewBox="0 0 24 24" fill="none">
  <path d="M21 4.6875H3C2.85082 4.6875 2.70774 4.74676 2.60225 4.85225C2.49676 4.95774 2.4375 5.10081 2.4375 5.24999V17.9999C2.4375 18.348 2.57578 18.6818 2.82192 18.9279C3.06806 19.1741 3.4019 19.3123 3.75 19.3123H20.25C20.5981 19.3123 20.9319 19.1741 21.1781 18.9279C21.4242 18.6818 21.5625 18.348 21.5625 17.9999V5.24999C21.5625 5.10081 21.5032 4.95774 21.3977 4.85225C21.2923 4.74676 21.1492 4.6875 21 4.6875ZM12 12.7368L4.44562 5.81249H19.5544L12 12.7368ZM9.53156 11.9999L3.5625 17.4711V6.52873L9.53156 11.9999ZM10.3641 12.763L11.625 13.9143C11.7287 14.0091 11.8641 14.0618 12.0047 14.0618C12.1452 14.0618 12.2807 14.0091 12.3844 13.9143L13.6406 12.763L19.5544 18.1874H4.44656L10.3641 12.763ZM14.4684 11.9999L20.4375 6.52873V17.4711L14.4684 11.9999Z" fill="black"/>
</svg>