<svg xmlns="http://www.w3.org/2000/svg" width="24" height="19" viewBox="0 0 24 19" fill="none">
  <path d="M23.0769 0.0253906H0.923077C0.678262 0.0253906 0.443473 0.120212 0.270363 0.288995C0.0972524 0.457777 0 0.686696 0 0.925391V16.2254C0 16.7028 0.194505 17.1606 0.540726 17.4982C0.886947 17.8357 1.35652 18.0254 1.84615 18.0254H22.1538C22.6435 18.0254 23.1131 17.8357 23.4593 17.4982C23.8055 17.1606 24 16.7028 24 16.2254V0.925391C24 0.686696 23.9027 0.457777 23.7296 0.288995C23.5565 0.120212 23.3217 0.0253906 23.0769 0.0253906ZM12 9.60476L3.29654 1.82539H20.7035L12 9.60476ZM8.62038 9.02539L1.84615 15.079V2.97177L8.62038 9.02539ZM9.98654 10.246L11.3712 11.4891C11.5415 11.6416 11.7642 11.7261 11.9954 11.7261C12.2266 11.7261 12.4493 11.6416 12.6196 11.4891L14.0042 10.246L20.6965 16.2254H3.29654L9.98654 10.246ZM15.3796 9.02539L22.1538 2.97064V15.0801L15.3796 9.02539Z" fill="black"/>
</svg>