<svg xmlns="http://www.w3.org/2000/svg" width="22" height="20" viewBox="0 0 22 20" fill="none">
  <path opacity="0.8" d="M10.9974 11V19M10.9974 11L6.99741 15M10.9974 11L14.9974 15M2.99741 12.899C2.25445 12.1399 1.69398 11.2217 1.35844 10.214C1.02291 9.20618 0.921116 8.13526 1.06077 7.08232C1.20042 6.02938 1.57787 5.02202 2.1645 4.13655C2.75114 3.25109 3.53159 2.51074 4.44674 1.97157C5.36189 1.43241 6.38774 1.10857 7.44658 1.0246C8.50542 0.940622 9.56948 1.09871 10.5582 1.48688C11.5469 1.87505 12.4343 2.48313 13.1531 3.26506C13.872 4.04698 14.4035 4.98225 14.7074 6.00002H16.4974C17.4629 5.99991 18.4029 6.31034 19.1784 6.88546C19.9539 7.46058 20.5239 8.26988 20.8042 9.19383C21.0844 10.1178 21.0601 11.1074 20.7347 12.0164C20.4094 12.9254 19.8003 13.7057 18.9974 14.242" stroke="#7E7D7B" stroke-width="1.5" stroke-linecap="round" stroke-linejoin="round"/>
</svg>