<svg xmlns="http://www.w3.org/2000/svg" width="22" height="22" viewBox="0 0 22 22" fill="none">
  <path opacity="0.9" d="M9.42857 6.36675C9.42857 6.05909 9.52073 5.75834 9.69341 5.50253C9.86608 5.24672 10.1115 5.04734 10.3986 4.92961C10.6858 4.81187 11.0017 4.78107 11.3066 4.84109C11.6114 4.90111 11.8914 5.04926 12.1112 5.26681C12.3309 5.48436 12.4806 5.76153 12.5412 6.06328C12.6019 6.36503 12.5707 6.6778 12.4518 6.96204C12.3329 7.24628 12.1315 7.48922 11.873 7.66015C11.6146 7.83108 11.3108 7.92231 11 7.92231C10.5832 7.92231 10.1835 7.75842 9.88883 7.4667C9.59413 7.17497 9.42857 6.77931 9.42857 6.36675ZM4.71429 6.36675C4.71429 4.71652 5.37653 3.13387 6.55533 1.96698C7.73413 0.800085 9.33292 0.144531 11 0.144531C12.6671 0.144531 14.2659 0.800085 15.4447 1.96698C16.6235 3.13387 17.2857 4.71652 17.2857 6.36675C17.2857 12.1952 11.6305 15.4609 11.3929 15.598C11.2741 15.6652 11.1397 15.7005 11.0029 15.7005C10.8662 15.7005 10.7318 15.6652 10.613 15.598C10.3695 15.4609 4.71429 12.2001 4.71429 6.36675ZM6.28571 6.36675C6.28571 10.4695 9.80571 13.1927 11 13.9987C12.1933 13.1937 15.7143 10.4695 15.7143 6.36675C15.7143 5.12908 15.2176 3.94209 14.3335 3.06692C13.4494 2.19175 12.2503 1.70009 11 1.70009C9.74969 1.70009 8.5506 2.19175 7.6665 3.06692C6.7824 3.94209 6.28571 5.12908 6.28571 6.36675ZM18.3435 12.9419C18.1501 12.8787 17.9395 12.8922 17.756 12.9797C17.5725 13.0672 17.4305 13.2218 17.36 13.4109C17.2894 13.6001 17.2958 13.8089 17.3778 13.9935C17.4597 14.178 17.6109 14.3239 17.7994 14.4002C19.4209 14.9943 20.4286 15.7895 20.4286 16.4779C20.4286 17.7768 16.8418 19.589 11 19.589C5.15821 19.589 1.57143 17.7768 1.57143 16.4779C1.57143 15.7895 2.57911 14.9943 4.20062 14.4012C4.38911 14.3248 4.54027 14.179 4.62225 13.9944C4.70422 13.8099 4.7106 13.601 4.64004 13.4119C4.56948 13.2228 4.42749 13.0682 4.24401 12.9807C4.06053 12.8932 3.8499 12.8796 3.65652 12.9429C1.29839 13.8033 0 15.0594 0 16.4779C0 19.5093 5.66795 21.1445 11 21.1445C16.3321 21.1445 22 19.5093 22 16.4779C22 15.0594 20.7016 13.8033 18.3435 12.9419Z" fill="black"/>
</svg>