<svg width="18" height="20" viewBox="0 0 18 20" fill="none" xmlns="http://www.w3.org/2000/svg">
<path d="M11.1666 13.5747C11.7576 13.1219 12.192 12.4952 12.4085 11.7828C12.6251 11.0704 12.6129 10.308 12.3739 9.60287C12.1348 8.8977 11.6808 8.28517 11.0756 7.85135C10.4705 7.41752 9.74459 7.18422 9 7.18422C8.25541 7.18422 7.52953 7.41752 6.92437 7.85135C6.31922 8.28517 5.8652 8.8977 5.62613 9.60287C5.38705 10.308 5.37494 11.0704 5.59149 11.7828C5.80804 12.4952 6.24237 13.1219 6.83344 13.5747C5.72438 13.9889 4.75807 14.7137 4.05 15.6625C3.96049 15.7818 3.92206 15.9319 3.94315 16.0795C3.96425 16.2272 4.04315 16.3605 4.1625 16.45C4.28185 16.5395 4.43186 16.5779 4.57955 16.5568C4.72723 16.5357 4.86049 16.4568 4.95 16.3375C5.42156 15.7088 6.03303 15.1984 6.73598 14.847C7.43894 14.4955 8.21407 14.3125 9 14.3125C9.78593 14.3125 10.5611 14.4955 11.264 14.847C11.967 15.1984 12.5784 15.7088 13.05 16.3375C13.1395 16.4568 13.2728 16.5357 13.4205 16.5568C13.5681 16.5779 13.7182 16.5395 13.8375 16.45C13.9568 16.3605 14.0357 16.2272 14.0568 16.0795C14.0779 15.9319 14.0395 15.7818 13.95 15.6625C13.2419 14.7137 12.2756 13.9889 11.1666 13.5747ZM9 8.3125C9.48209 8.3125 9.95336 8.45546 10.3542 8.72329C10.755 8.99113 11.0675 9.37181 11.252 9.81721C11.4364 10.2626 11.4847 10.7527 11.3907 11.2255C11.2966 11.6984 11.0645 12.1327 10.7236 12.4736C10.3827 12.8145 9.94836 13.0466 9.47553 13.1407C9.0027 13.2347 8.5126 13.1864 8.06721 13.002C7.62181 12.8175 7.24113 12.505 6.97329 12.1042C6.70546 11.7034 6.5625 11.2321 6.5625 10.75C6.5625 10.1035 6.81931 9.48355 7.27643 9.02643C7.73355 8.56931 8.35353 8.3125 9 8.3125ZM15.75 0.4375H2.25C1.9019 0.4375 1.56806 0.575781 1.32192 0.821922C1.07578 1.06806 0.9375 1.4019 0.9375 1.75V18.25C0.9375 18.5981 1.07578 18.9319 1.32192 19.1781C1.56806 19.4242 1.9019 19.5625 2.25 19.5625H15.75C16.0981 19.5625 16.4319 19.4242 16.6781 19.1781C16.9242 18.9319 17.0625 18.5981 17.0625 18.25V1.75C17.0625 1.4019 16.9242 1.06806 16.6781 0.821922C16.4319 0.575781 16.0981 0.4375 15.75 0.4375ZM15.9375 18.25C15.9375 18.2997 15.9177 18.3474 15.8826 18.3826C15.8474 18.4177 15.7997 18.4375 15.75 18.4375H2.25C2.20027 18.4375 2.15258 18.4177 2.11742 18.3826C2.08225 18.3474 2.0625 18.2997 2.0625 18.25V1.75C2.0625 1.70027 2.08225 1.65258 2.11742 1.61742C2.15258 1.58225 2.20027 1.5625 2.25 1.5625H15.75C15.7997 1.5625 15.8474 1.58225 15.8826 1.61742C15.9177 1.65258 15.9375 1.70027 15.9375 1.75V18.25ZM5.4375 4C5.4375 3.85082 5.49676 3.70774 5.60225 3.60225C5.70774 3.49676 5.85082 3.4375 6 3.4375H12C12.1492 3.4375 12.2923 3.49676 12.3977 3.60225C12.5032 3.70774 12.5625 3.85082 12.5625 4C12.5625 4.14918 12.5032 4.29226 12.3977 4.39775C12.2923 4.50324 12.1492 4.5625 12 4.5625H6C5.85082 4.5625 5.70774 4.50324 5.60225 4.39775C5.49676 4.29226 5.4375 4.14918 5.4375 4Z" fill="black"/>
</svg>
