<svg xmlns="http://www.w3.org/2000/svg" width="22" height="23" viewBox="0 0 22 23" fill="none">
  <path opacity="0.9" d="M13.2299 1.55748C13.2598 1.4458 13.3114 1.3411 13.3817 1.24936C13.4521 1.15762 13.5398 1.08064 13.6399 1.02282C13.7401 0.965005 13.8506 0.927478 13.9652 0.912387C14.0798 0.897297 14.1963 0.904939 14.308 0.934877C15.9394 1.36052 17.4278 2.21336 18.62 3.40554C19.8122 4.59772 20.665 6.08616 21.0907 7.71754C21.1206 7.82921 21.1283 7.94568 21.1132 8.0603C21.0981 8.17491 21.0605 8.28544 21.0027 8.38555C20.9449 8.48566 20.8679 8.5734 20.7762 8.64375C20.6844 8.7141 20.5797 8.76568 20.4681 8.79555C20.3937 8.81508 20.3172 8.82506 20.2404 8.82525C20.0464 8.82525 19.8579 8.76119 19.7042 8.64303C19.5504 8.52487 19.44 8.35923 19.39 8.17185C19.0429 6.84009 18.3469 5.625 17.3737 4.65184C16.4005 3.67867 15.1854 2.98264 13.8536 2.63549C13.7419 2.60574 13.637 2.55424 13.5452 2.48394C13.4533 2.41364 13.3762 2.32592 13.3183 2.2258C13.2604 2.12567 13.2227 2.01511 13.2076 1.90044C13.1924 1.78576 13.2 1.66922 13.2299 1.55748ZM12.9736 6.15553C14.4906 6.56033 15.4652 7.53494 15.87 9.05186C15.9199 9.23924 16.0303 9.40488 16.1841 9.52304C16.3379 9.6412 16.5264 9.70526 16.7203 9.70526C16.7972 9.70507 16.8737 9.69509 16.948 9.67556C17.0597 9.64569 17.1644 9.59411 17.2561 9.52376C17.3479 9.4534 17.4248 9.36567 17.4827 9.26556C17.5405 9.16545 17.578 9.05492 17.5931 8.9403C17.6082 8.82569 17.6005 8.70922 17.5706 8.59755C17.0074 6.48993 15.5356 5.01812 13.4279 4.45491C13.2024 4.39467 12.9622 4.42648 12.7601 4.54334C12.5581 4.6602 12.4107 4.85255 12.3505 5.07807C12.2902 5.30358 12.322 5.54379 12.4389 5.74586C12.5558 5.94792 12.7481 6.09528 12.9736 6.15553ZM21.9872 16.6441C21.791 18.1347 21.059 19.5029 19.9278 20.4931C18.7967 21.4834 17.3437 22.0281 15.8403 22.0254C7.10613 22.0254 9.95368e-06 14.9193 9.95368e-06 6.18523C-0.00268507 4.68183 0.541975 3.22886 1.53226 2.09769C2.52255 0.966523 3.89074 0.234507 5.3813 0.0383681C5.75823 -0.00765529 6.13993 0.0694567 6.46943 0.258193C6.79892 0.446929 7.05855 0.737166 7.20953 1.08558L9.53277 6.27213V6.28533C9.64837 6.55203 9.69611 6.84321 9.67174 7.13286C9.64736 7.42251 9.55162 7.70162 9.39307 7.94524C9.37327 7.97495 9.35237 8.00245 9.33037 8.02995L7.04013 10.7448C7.86405 12.419 9.61528 14.1548 11.3115 14.9809L13.989 12.7028C14.0152 12.6807 14.0428 12.6601 14.0715 12.6412C14.3149 12.4788 14.5949 12.3797 14.8863 12.3528C15.1777 12.3259 15.4712 12.3721 15.7402 12.4872L15.7545 12.4938L20.9367 14.8159C21.2857 14.9664 21.5766 15.2258 21.766 15.5553C21.9554 15.8848 22.033 16.2668 21.9872 16.6441ZM20.2404 16.4241C20.2404 16.4241 20.2327 16.4241 20.2283 16.4241L15.0582 14.1086L12.3796 16.3867C12.3536 16.4087 12.3265 16.4293 12.2982 16.4483C12.0449 16.6173 11.7522 16.7177 11.4485 16.7397C11.1448 16.7616 10.8407 16.7045 10.5657 16.5737C8.50536 15.5782 6.45162 13.5399 5.455 11.5016C5.32303 11.2286 5.26381 10.9262 5.28309 10.6236C5.30236 10.321 5.39947 10.0286 5.56501 9.77456C5.58366 9.74474 5.60463 9.71642 5.62771 9.68986L7.92015 6.97174L5.61011 1.80169C5.60967 1.7973 5.60967 1.79287 5.61011 1.78849C4.54337 1.92764 3.56394 2.45087 2.85523 3.26021C2.14653 4.06954 1.75716 5.10946 1.76004 6.18523C1.76412 9.91826 3.24888 13.4972 5.88855 16.1369C8.52822 18.7765 12.1072 20.2613 15.8403 20.2654C16.9154 20.2691 17.955 19.8811 18.7649 19.1739C19.5747 18.4667 20.0992 17.4888 20.2404 16.423V16.4241Z" fill="black"/>
</svg>