<svg xmlns="http://www.w3.org/2000/svg" width="24" height="24" viewBox="0 0 24 24" fill="none">
  <path d="M13.7063 4.35468C13.7253 4.28325 13.7582 4.21628 13.8032 4.15759C13.8481 4.0989 13.9042 4.04964 13.9682 4.01264C14.0322 3.97563 14.1029 3.95161 14.1761 3.94193C14.2494 3.93226 14.3239 3.93712 14.3953 3.95625C15.7539 4.31064 16.9935 5.02083 17.9863 6.01365C18.9792 7.00647 19.6894 8.24603 20.0438 9.60463C20.0629 9.67603 20.0678 9.75051 20.0581 9.8238C20.0484 9.89708 20.0244 9.96775 19.9874 10.0317C19.9504 10.0957 19.9011 10.1518 19.8424 10.1968C19.7837 10.2417 19.7168 10.2746 19.6453 10.2937C19.5979 10.3063 19.5491 10.3126 19.5 10.3124C19.3761 10.3125 19.2556 10.2717 19.1573 10.1962C19.0589 10.1208 18.9883 10.015 18.9563 9.89525C18.652 8.72825 18.042 7.66349 17.1893 6.81072C16.3365 5.95794 15.2717 5.34799 14.1047 5.04374C14.0333 5.02469 13.9663 4.99176 13.9076 4.94681C13.8489 4.90187 13.7997 4.84579 13.7626 4.7818C13.7256 4.7178 13.7016 4.64714 13.6919 4.57385C13.6823 4.50056 13.6871 4.42609 13.7063 4.35468ZM13.3547 8.04371C14.7188 8.40745 15.5925 9.28119 15.9563 10.6452C15.9883 10.765 16.0589 10.8708 16.1573 10.9462C16.2556 11.0216 16.3761 11.0625 16.5 11.0624C16.5491 11.0626 16.5979 11.0563 16.6453 11.0437C16.7168 11.0246 16.7837 10.9917 16.8424 10.9467C16.9011 10.9018 16.9504 10.8457 16.9874 10.7817C17.0244 10.7177 17.0484 10.6471 17.0581 10.5738C17.0678 10.5005 17.0629 10.426 17.0438 10.3546C16.575 8.60057 15.3994 7.42496 13.6453 6.95622C13.5739 6.93713 13.4994 6.9323 13.4262 6.942C13.3529 6.9517 13.2823 6.97573 13.2183 7.01273C13.1543 7.04972 13.0982 7.09896 13.0533 7.15763C13.0083 7.2163 12.9753 7.28325 12.9563 7.35465C12.9372 7.42606 12.9323 7.50052 12.942 7.57379C12.9517 7.64707 12.9758 7.71771 13.0128 7.7817C13.0498 7.84568 13.099 7.90175 13.1577 7.94671C13.2163 7.99166 13.2833 8.02462 13.3547 8.04371ZM20.8022 17.1374C20.6416 18.3629 20.0402 19.488 19.1104 20.3023C18.1806 21.1167 16.986 21.5646 15.75 21.5623C8.40938 21.5623 2.43751 15.5905 2.43751 8.24995C2.43514 7.01438 2.88265 5.8202 3.69645 4.89048C4.51025 3.96075 5.63468 3.35907 6.8597 3.19782C7.14169 3.16355 7.4272 3.2217 7.67333 3.36353C7.91947 3.50536 8.11294 3.72321 8.2247 3.98437L10.2028 8.39995C10.2902 8.59985 10.3263 8.81837 10.308 9.03574C10.2896 9.25312 10.2174 9.46249 10.0978 9.64494C10.0858 9.66351 10.0726 9.68135 10.0584 9.69838L8.08313 12.0477C8.07114 12.0721 8.0649 12.0989 8.0649 12.126C8.0649 12.1532 8.07114 12.1799 8.08313 12.2043C8.80126 13.6743 10.3425 15.2043 11.8331 15.9214C11.858 15.9328 11.8852 15.9382 11.9125 15.9372C11.9399 15.9362 11.9666 15.9289 11.9906 15.9158L14.3053 13.9471C14.3218 13.9327 14.3394 13.9195 14.3578 13.9077C14.5395 13.7866 14.7484 13.7127 14.9658 13.6928C15.1832 13.6728 15.4022 13.7074 15.6028 13.7933L20.0316 15.778C20.2893 15.8922 20.5033 16.0863 20.6421 16.3317C20.7809 16.577 20.837 16.8605 20.8022 17.1402V17.1374ZM19.6875 16.9986C19.6907 16.9594 19.6814 16.9202 19.661 16.8866C19.6407 16.8529 19.6103 16.8265 19.5741 16.8111L15.1444 14.8264C15.1202 14.8171 15.0942 14.8131 15.0684 14.8147C15.0425 14.8163 15.0172 14.8235 14.9944 14.8358L12.6806 16.8046C12.6638 16.8186 12.6459 16.8317 12.6281 16.8439C12.4394 16.9698 12.2213 17.0446 11.995 17.061C11.7688 17.0774 11.5421 17.0349 11.3372 16.9377C9.61595 16.1061 7.90032 14.4065 7.06876 12.7012C6.97095 12.4974 6.92742 12.2719 6.94236 12.0464C6.95731 11.8209 7.03023 11.603 7.15407 11.414C7.16614 11.3952 7.17962 11.3773 7.19438 11.3605L9.16782 9.00838C9.1791 8.98383 9.18494 8.95713 9.18494 8.9301C9.18494 8.90308 9.1791 8.87638 9.16782 8.85182L7.19438 4.43531C7.18135 4.39984 7.15791 4.36913 7.12713 4.34722C7.09635 4.3253 7.05966 4.3132 7.02188 4.3125H7.00032C6.04683 4.43933 5.1721 4.90887 4.53947 5.63345C3.90685 6.35802 3.55958 7.28808 3.56251 8.24995C3.56251 14.9699 9.03001 20.4373 15.75 20.4373C16.712 20.4402 17.6422 20.0928 18.3668 19.46C19.0914 18.8272 19.5609 17.9523 19.6875 16.9986Z" fill="black"/>
</svg>