<svg preserveAspectRatio="none" xmlns="http://www.w3.org/2000/svg" width="373" height="347" viewBox="0 0 373 347" fill="none">
                <path d="M373 52.9641C372.825 41.8114 372.65 30.6566 372.474 19.5039C370.761 18.331 371.214 16.5088 371.487 14.7393C370.998 10.7477 371.118 5.45549 366.382 5.9628C358.846 6.7684 351.837 3.29435 344.373 3.3816C315.433 3.7144 286.49 3.52365 257.546 3.50945C254.128 3.50945 250.649 3.87268 247.301 3.25782C221.897 -1.39523 196.347 1.90026 171.226 4.42666C145.096 7.05453 119.428 3.94776 93.6506 2.507C78.1705 1.64254 62.6887 0.763884 47.3333 1.99969C38.1173 2.74239 29.2535 4.25621 20.051 1.58573C5.85811 -2.53363 1.88194 0.948544 0.628435 17.0567C0.795232 17.8237 0.648653 18.4934 0.187013 19.0595C1.05301 33.5016 1.31247 242.02 0 256.448C0.237559 270.519 0.475118 328.203 0.712678 342.275C8.25224 347.302 16.464 343.036 24.2058 344.706C44.7707 349.146 65.622 345.538 86.3637 345.885C111.68 346.309 137.021 345.938 162.406 344.576C218.745 341.552 275.238 350.117 331.617 345.714C338.385 345.186 344.818 347.19 351.716 346.951C369.647 346.326 369.657 346.716 371.895 326.336C371.895 250.027 371.192 65.5819 372.997 52.9641H373Z" fill="#FBF9F6"/>
                </svg>