<svg width="1920" height="1085" viewBox="0 0 1920 1085" fill="none" xmlns="http://www.w3.org/2000/svg">
<mask id="mask0_2290_73" style="mask-type:alpha" maskUnits="userSpaceOnUse" x="0" y="0" width="1920" height="1085">
<rect width="1920" height="1085" fill="#D9D9D9"/>
</mask>
<g mask="url(#mask0_2290_73)">
<path opacity="0.06" d="M2139.43 719.542C2065.04 739.104 1992.93 768.873 1925.05 803.25C1840.93 845.854 1767.31 903.658 1681.87 944.023C1554.76 1004.08 1410.22 1024.01 1284.95 949.606C1181.31 888.053 1137.98 769.091 1093.11 667.76C1059.8 592.523 1032.73 513.602 1028.55 431.697C1023.59 334.531 1044.99 250.172 1124.62 183.668C1192.01 127.396 1277.77 92.3703 1358.49 58.1662C1452.62 18.2871 1605.03 -29.0935 1830.59 14.5631C2036.53 54.4249 2108.56 39.2317 2139.43 58.1662C2139.43 183.668 2140.05 295.438 2139.43 431.697C2138.93 540.533 2139.43 575.011 2139.43 719.542Z" fill="#FCB116"/>
<path opacity="0.06" d="M-511.451 206.047C-363.408 181.552 -211.617 79.1799 -76.5277 36.1333C90.8907 -17.2143 242.359 136.744 412.403 86.1989C665.387 10.9908 953.072 -13.9631 1202.39 79.2072C1408.68 156.284 1568.05 59.536 1657.36 186.422C1723.67 280.632 1753.04 464.501 1761.36 567.06C1771.23 688.73 1666.8 793.786 1508.32 877.061C1374.19 947.524 1224.33 959.771 1042.9 982.812C861.471 1005.85 368.444 910.243 214.954 936.93C61.4635 963.617 -450.02 1057.92 -511.451 1034.21C-511.451 877.061 -512.687 737.104 -511.451 566.482C-510.464 430.199 -511.451 387.026 -511.451 206.047Z" fill="#FCB116"/>
</g>
</svg>
